<?xml version="1.0" encoding="UTF-8" standalone="no"?>
<!-- Created with Inkscape (http://www.inkscape.org/) -->

<svg
   xmlns:dc="http://purl.org/dc/elements/1.1/"
   xmlns:cc="http://creativecommons.org/ns#"
   xmlns:rdf="http://www.w3.org/1999/02/22-rdf-syntax-ns#"
   xmlns:svg="http://www.w3.org/2000/svg"
   xmlns="http://www.w3.org/2000/svg"
   xmlns:xlink="http://www.w3.org/1999/xlink"
   xmlns:sodipodi="http://sodipodi.sourceforge.net/DTD/sodipodi-0.dtd"
   xmlns:inkscape="http://www.inkscape.org/namespaces/inkscape"
   width="42mm"
   height="46mm"
   viewBox="0 0 42 46"
   version="1.1"
   id="svg2557"
   inkscape:version="0.92.5 (2060ec1f9f, 2020-04-08)"
   sodipodi:docname="logo001.svg"
   inkscape:export-filename="C:\Users\Bartek\Desktop\logo03.png"
   inkscape:export-xdpi="96"
   inkscape:export-ydpi="96">
  <defs
     id="defs2551">
    <linearGradient
       gradientTransform="translate(-92.344697,196.61485)"
       inkscape:collect="always"
       xlink:href="#linearGradient5068-2"
       id="linearGradient6133-6-6"
       x1="114.30633"
       y1="77.829063"
       x2="127.09652"
       y2="77.829063"
       gradientUnits="userSpaceOnUse" />
    <linearGradient
       inkscape:collect="always"
       id="linearGradient5068-2">
      <stop
         style="stop-color:#ffffff;stop-opacity:1"
         offset="0"
         id="stop5064" />
      <stop
         style="stop-color:#ffffff;stop-opacity:0"
         offset="1"
         id="stop5066" />
    </linearGradient>
    <linearGradient
       gradientTransform="matrix(0.26458333,0,0,0.26458333,-21.026707,195.92629)"
       inkscape:collect="always"
       xlink:href="#linearGradient5241"
       id="linearGradient5654-8-7-1-6-1"
       x1="187.33846"
       y1="285.07657"
       x2="186.19218"
       y2="341.30374"
       gradientUnits="userSpaceOnUse" />
    <linearGradient
       inkscape:collect="always"
       id="linearGradient5241">
      <stop
         style="stop-color:#23004d;stop-opacity:1"
         offset="0"
         id="stop5237" />
      <stop
         style="stop-color:#3f008d;stop-opacity:0.00507614"
         offset="1"
         id="stop5239" />
    </linearGradient>
    <linearGradient
       gradientTransform="matrix(0.26458333,0,0,0.26458333,-20.933166,196.25369)"
       inkscape:collect="always"
       xlink:href="#linearGradient5068-2"
       id="linearGradient5654-8-7-1-8"
       x1="186.08846"
       y1="339.57657"
       x2="186.19218"
       y2="330.05374"
       gradientUnits="userSpaceOnUse" />
    <linearGradient
       inkscape:collect="always"
       xlink:href="#linearGradient5068-2"
       id="linearGradient5992-4"
       x1="75.424805"
       y1="76.762817"
       x2="85.71273"
       y2="76.762817"
       gradientUnits="userSpaceOnUse"
       gradientTransform="translate(-66.304714,196.72277)" />
    <linearGradient
       inkscape:collect="always"
       xlink:href="#linearGradient5241"
       id="linearGradient5890-2-9"
       gradientUnits="userSpaceOnUse"
       gradientTransform="translate(-22.656209,196.96445)"
       x1="36.119751"
       y1="75.469292"
       x2="36.014446"
       y2="91.412025" />
    <linearGradient
       inkscape:collect="always"
       xlink:href="#linearGradient5068-2"
       id="linearGradient5890-2-8-7"
       gradientUnits="userSpaceOnUse"
       gradientTransform="translate(-22.515893,197.15154)"
       x1="35.932663"
       y1="88.84613"
       x2="35.90387"
       y2="85.953903" />
    <linearGradient
       inkscape:collect="always"
       xlink:href="#linearGradient4661-8-6"
       id="linearGradient5536-5-0"
       x1="36.898121"
       y1="63.9995"
       x2="36.8176"
       y2="77.735085"
       gradientUnits="userSpaceOnUse"
       gradientTransform="translate(-22.516078,196.87098)" />
    <linearGradient
       id="linearGradient4661-8-6"
       inkscape:collect="always">
      <stop
         id="stop4657"
         offset="0"
         style="stop-color:#0b0049;stop-opacity:1" />
      <stop
         id="stop4659"
         offset="1"
         style="stop-color:#6fe7ff;stop-opacity:0.98823529" />
    </linearGradient>
    <linearGradient
       gradientTransform="matrix(0.26458333,0,0,0.26458333,-20.979505,196.64165)"
       inkscape:collect="always"
       xlink:href="#linearGradient4661-8-6"
       id="linearGradient5654-8-7-0"
       x1="186.33846"
       y1="244.07655"
       x2="186.69218"
       y2="288.80374"
       gradientUnits="userSpaceOnUse" />
  </defs>
  <sodipodi:namedview
     id="base"
     pagecolor="#ffffff"
     bordercolor="#666666"
     borderopacity="1.0"
     inkscape:pageopacity="0.0"
     inkscape:pageshadow="2"
     inkscape:zoom="1.4"
     inkscape:cx="69.341269"
     inkscape:cy="180.82962"
     inkscape:document-units="mm"
     inkscape:current-layer="layer1"
     showgrid="false"
     inkscape:window-width="1920"
     inkscape:window-height="1017"
     inkscape:window-x="-8"
     inkscape:window-y="-8"
     inkscape:window-maximized="1"
     width="51mm" />
  <metadata
     id="metadata2554">
    <rdf:RDF>
      <cc:Work
         rdf:about="">
        <dc:format>image/svg+xml</dc:format>
        <dc:type
           rdf:resource="http://purl.org/dc/dcmitype/StillImage" />
        <dc:title></dc:title>
      </cc:Work>
    </rdf:RDF>
  </metadata>
  <g
     inkscape:label="Layer 1"
     inkscape:groupmode="layer"
     id="layer1"
     transform="translate(0,-251)">
    <path
       inkscape:connector-curvature="0"
       style="display:inline;fill:url(#linearGradient5654-8-7-0);fill-opacity:1;stroke:none;stroke-width:0.2;stroke-linecap:butt;stroke-linejoin:miter;stroke-miterlimit:4;stroke-dasharray:none;stroke-opacity:1"
       d="m 24.400673,261.34468 -2.05827,0.93586 0.0506,23.26424 1.97746,1.24199 10.54106,-9.782 0.0208,-6.59531 z m 0.88987,3.39979 7.54109,7.01172 c 0.0344,0.0721 0.0445,4.12673 0.0445,4.12673 l -7.80367,7.65475 -1.24692,-0.74078 -0.062,-17.3584 z"
       id="path5315-7-3-88-0-9"
       sodipodi:nodetypes="cccccccccccccc" />
    <path
       inkscape:connector-curvature="0"
       style="display:inline;fill:url(#linearGradient5536-5-0);fill-opacity:1;stroke:none;stroke-width:0.2;stroke-linecap:butt;stroke-linejoin:miter;stroke-miterlimit:4;stroke-dasharray:none;stroke-opacity:1"
       d="m 11.392953,261.05053 -2.0582667,0.93534 -0.0212,23.03942 2.0835967,0.98961 7.94681,-6.81665 -5.70611,-4.49016 -0.0341,-2.36781 5.1325,-4.39095 z m -0.458367,2.26601 5.197627,4.7811 -5.407947,4.20956 -0.047,-8.8036 z m -0.21755,11.22205 1.183907,1.06454 4.59766,3.75791 -4.23334,3.65094 -1.527047,-0.69401 z"
       id="path5317-0-7-94" />
    <path
       inkscape:connector-curvature="0"
       style="display:inline;fill:#ffffff;fill-opacity:1;stroke:none;stroke-width:0.2;stroke-linecap:butt;stroke-linejoin:miter;stroke-miterlimit:4;stroke-dasharray:none;stroke-opacity:1"
       d="m 9.1008353,272.97733 0.119121,12.51567 2.0835867,0.98962 7.9468,-6.81664 -5.70611,-4.49017 -0.0341,-2.36781 c -0.84166,0.46101 -0.99106,0.58908 -2.21072,-0.22823 -1.203617,-0.18311 -1.159417,0.47188 -2.1985777,0.39756 z m 1.5226607,2.02898 1.183907,1.06454 4.59765,3.75791 -4.23333,3.65094 -1.527037,-0.69401 z"
       id="path5317-0-7-9-9"
       sodipodi:nodetypes="cccccccccccccc" />
    <path
       inkscape:connector-curvature="0"
       style="display:inline;fill:#ee00f6;fill-opacity:1;stroke:none;stroke-width:0.2;stroke-linecap:butt;stroke-linejoin:miter;stroke-miterlimit:4;stroke-dasharray:none;stroke-opacity:1"
       d="m 9.2413263,272.97725 0.11912,12.51567 2.0835867,0.98962 7.94681,-6.81664 -5.70611,-4.49017 -0.0341,-2.36781 c -0.84166,0.46101 -0.99106,0.58908 -2.21073,-0.22823 -1.203617,-0.18311 -1.159417,0.47188 -2.1985767,0.39756 z m 1.5226597,2.02898 1.183917,1.06454 4.59765,3.75791 -4.233331,3.65094 -1.527046,-0.69401 z"
       id="path5317-0-7-9-0-4-1"
       sodipodi:nodetypes="cccccccccccccc" />
    <path
       inkscape:connector-curvature="0"
       style="display:inline;fill:url(#linearGradient5890-2-8-7);fill-opacity:1;stroke:none;stroke-width:0.2;stroke-linecap:butt;stroke-linejoin:miter;stroke-miterlimit:4;stroke-dasharray:none;stroke-opacity:1"
       d="m 9.1945563,272.79016 0.11912,12.51567 2.0835867,0.98962 7.94681,-6.81664 -5.70611,-4.49017 -0.0341,-2.36781 c -0.84166,0.46101 -0.99106,0.58908 -2.21073,-0.22822 -1.203617,-0.18312 -1.159417,0.47187 -2.1985767,0.39755 z m 1.5226597,2.02899 1.183916,1.06453 4.597651,3.75791 -4.23333,3.65094 -1.527047,-0.69401 z"
       id="path5317-0-7-9-0-8-3"
       sodipodi:nodetypes="cccccccccccccc" />
    <path
       inkscape:connector-curvature="0"
       style="display:inline;fill:url(#linearGradient5890-2-9);fill-opacity:1;stroke:none;stroke-width:0.2;stroke-linecap:butt;stroke-linejoin:miter;stroke-miterlimit:4;stroke-dasharray:none;stroke-opacity:1"
       d="m 9.0542433,272.60307 0.119123,12.51568 2.0835867,0.98962 7.9468,-6.81665 -5.70611,-4.49017 -0.0341,-2.36781 c -0.84166,0.46101 -0.991061,0.58908 -2.21072,-0.22822 -1.203617,-0.18312 -1.159417,0.47187 -2.1985797,0.39755 z m 1.5226627,2.02899 1.183907,1.06453 4.59765,3.75791 -4.23333,3.65095 -1.527037,-0.69401 z"
       id="path5317-0-7-9-0-1"
       sodipodi:nodetypes="cccccccccccccc" />
    <path
       inkscape:connector-curvature="0"
       style="display:inline;fill:none;fill-opacity:1;stroke:#00e8ff;stroke-width:0.2;stroke-linecap:butt;stroke-linejoin:miter;stroke-miterlimit:4;stroke-dasharray:none;stroke-opacity:1"
       d="m 12.141502,261.19076 -2.058276,0.93535 -0.0212,23.03941 2.083597,0.98962 7.9468,-6.81665 -5.70611,-4.49016 -0.0341,-2.36782 5.1325,-4.39094 z m -0.458369,2.26601 5.19762,4.78111 -5.40795,4.20956 -0.047,-8.8036 z m -0.21756,11.22206 1.18391,1.06453 4.59765,3.75791 -4.23334,3.65095 -1.52703,-0.69401 z"
       id="path5317-0-7-2-0-4" />
    <path
       inkscape:connector-curvature="0"
       style="display:inline;fill:none;fill-opacity:1;stroke:url(#linearGradient5992-4);stroke-width:0.2;stroke-linecap:butt;stroke-linejoin:miter;stroke-miterlimit:4;stroke-dasharray:none;stroke-opacity:1"
       d="m 11.299603,261.00367 -2.0582667,0.93535 -0.0212,23.03941 2.0835867,0.98962 7.94681,-6.81665 -5.706121,-4.49016 -0.0341,-2.36782 5.13251,-4.39094 z m -0.458367,2.26601 5.197617,4.78111 -5.407937,4.20956 -0.047,-8.8036 z m -0.21756,11.22206 1.183907,1.06453 4.59766,3.75792 -4.23334,3.65094 -1.527037,-0.69401 z"
       id="path5317-0-7-2-0-9-0" />
    <path
       style="display:inline;fill:#ee00f6;fill-opacity:1;stroke:none;stroke-width:0.2;stroke-linecap:butt;stroke-linejoin:miter;stroke-miterlimit:4;stroke-dasharray:none;stroke-opacity:1"
       d="m 22.426843,272.37269 c 0.0743,3.67807 0.0495,8.11333 0.0595,12.75141 l 1.97765,1.24179 10.54096,-9.78184 0.0134,-4.25814 c -0.93985,-0.41777 -1.65658,-0.46367 -2.067571,0 0.007,0.57735 0.011,1.30548 0.0139,1.91875 0.003,0.68372 0.005,1.2175 0.005,1.2175 l -7.803673,7.65483 -1.24695,-0.74104 -0.0289,-8.06514 0.0291,-2.60643 c -0.64813,1.35264 -1.00132,0.49339 -1.49242,0.66831 z"
       id="path5315-7-3-88-0-5-6-4-2"
       inkscape:connector-curvature="0"
       sodipodi:nodetypes="ccccccccccccc" />
    <path
       style="display:inline;fill:url(#linearGradient5654-8-7-1-8);fill-opacity:1;stroke:none;stroke-width:0.2;stroke-linecap:butt;stroke-linejoin:miter;stroke-miterlimit:4;stroke-dasharray:none;stroke-opacity:1"
       d="m 22.379623,272.40558 c 0.0743,3.67807 0.0495,8.11333 0.0595,12.75141 l 1.97765,1.24179 10.54095,-9.78183 0.0134,-4.25814 c -0.93985,-0.41778 -1.656581,-0.46368 -2.067571,0 0.007,0.57734 0.011,1.30547 0.0139,1.91874 0.003,0.68372 0.005,1.2175 0.005,1.2175 l -7.80365,7.65484 -1.24695,-0.74104 -0.0289,-8.06515 0.0291,-2.60643 c -0.64813,1.35265 -1.00133,0.49339 -1.492429,0.66831 z"
       id="path5315-7-3-88-0-5-0"
       inkscape:connector-curvature="0"
       sodipodi:nodetypes="ccccccccccccc" />
    <path
       style="display:inline;fill:url(#linearGradient5654-8-7-1-6-1);fill-opacity:1;stroke:none;stroke-width:0.2;stroke-linecap:butt;stroke-linejoin:miter;stroke-miterlimit:4;stroke-dasharray:none;stroke-opacity:1"
       d="m 22.286083,272.07817 c 0.0743,3.67808 0.0495,8.11334 0.0595,12.75141 l 1.97765,1.24179 10.54097,-9.78183 0.0134,-4.25814 c -0.93985,-0.41777 -1.65658,-0.46367 -2.06757,0 0.007,0.57734 0.011,1.30548 0.0139,1.91875 0.003,0.68371 0.005,1.2175 0.005,1.2175 l -7.803683,7.65483 -1.24695,-0.74104 -0.0289,-8.06515 0.0291,-2.60642 c -0.64812,1.35264 -1.00132,0.49339 -1.49242,0.6683 z"
       id="path5315-7-3-88-0-5-6-0"
       inkscape:connector-curvature="0"
       sodipodi:nodetypes="ccccccccccccc" />
    <path
       inkscape:connector-curvature="0"
       style="display:inline;fill:none;fill-opacity:1;stroke:#00dcff;stroke-width:0.2;stroke-linecap:butt;stroke-linejoin:miter;stroke-miterlimit:4;stroke-dasharray:none;stroke-opacity:1"
       d="m 24.915163,261.8124 -2.05827,0.93586 0.0506,23.26425 1.97746,1.24199 10.54105,-9.78201 0.0208,-6.5953 z m 0.88987,3.39979 7.54109,7.01173 c 0.0344,0.0721 0.0445,4.12672 0.0445,4.12672 l -7.80368,7.65476 -1.24692,-0.74078 -0.062,-17.35841 z"
       id="path5315-7-3-88-0-7-6"
       sodipodi:nodetypes="cccccccccccccc" />
    <path
       inkscape:connector-curvature="0"
       style="display:inline;fill:none;fill-opacity:1;stroke:url(#linearGradient6133-6-6);stroke-width:0.2;stroke-linecap:butt;stroke-linejoin:miter;stroke-miterlimit:4;stroke-dasharray:none;stroke-opacity:1"
       d="m 24.120043,261.71886 -2.05827,0.93586 0.0506,23.26424 1.97746,1.24199 10.54105,-9.782 0.0208,-6.59531 z m 0.88987,3.39979 7.54109,7.01172 c 0.0344,0.0721 0.0445,4.12673 0.0445,4.12673 l -7.80368,7.65475 -1.24692,-0.74078 -0.062,-17.35841 z"
       id="path5315-7-3-88-0-7-4-6"
       sodipodi:nodetypes="cccccccccccccc" />
  </g>
</svg>
