<?xml version="1.0" encoding="UTF-8" standalone="no"?>
<!-- Created with Inkscape (http://www.inkscape.org/) -->

<svg
   xmlns:dc="http://purl.org/dc/elements/1.1/"
   xmlns:cc="http://creativecommons.org/ns#"
   xmlns:rdf="http://www.w3.org/1999/02/22-rdf-syntax-ns#"
   xmlns:svg="http://www.w3.org/2000/svg"
   xmlns="http://www.w3.org/2000/svg"
   xmlns:xlink="http://www.w3.org/1999/xlink"
   xmlns:sodipodi="http://sodipodi.sourceforge.net/DTD/sodipodi-0.dtd"
   xmlns:inkscape="http://www.inkscape.org/namespaces/inkscape"
   width="42mm"
   height="46mm"
   viewBox="0 0 42 46"
   version="1.1"
   id="svg2557"
   inkscape:version="0.92.5 (2060ec1f9f, 2020-04-08)"
   sodipodi:docname="logo004.svg"
   inkscape:export-filename="C:\Users\Bartek\Desktop\logo03.png"
   inkscape:export-xdpi="96"
   inkscape:export-ydpi="96">
  <defs
     id="defs2551">
    <linearGradient
       gradientTransform="matrix(1.3566334,0,0,1.3566334,-133.98699,168.96948)"
       inkscape:collect="always"
       xlink:href="#linearGradient5068-2"
       id="linearGradient6133-6-6"
       x1="114.30633"
       y1="77.829063"
       x2="127.09652"
       y2="77.829063"
       gradientUnits="userSpaceOnUse" />
    <linearGradient
       inkscape:collect="always"
       id="linearGradient5068-2">
      <stop
         style="stop-color:#ffffff;stop-opacity:1"
         offset="0"
         id="stop5064" />
      <stop
         style="stop-color:#ffffff;stop-opacity:0"
         offset="1"
         id="stop5066" />
    </linearGradient>
    <linearGradient
       gradientTransform="matrix(0.35894258,0,0,0.35894258,-37.234622,168.03537)"
       inkscape:collect="always"
       xlink:href="#linearGradient5241"
       id="linearGradient5654-8-7-1-6-1"
       x1="187.33846"
       y1="285.07657"
       x2="186.19218"
       y2="341.30374"
       gradientUnits="userSpaceOnUse" />
    <linearGradient
       inkscape:collect="always"
       id="linearGradient5241">
      <stop
         style="stop-color:#23004d;stop-opacity:1"
         offset="0"
         id="stop5237" />
      <stop
         style="stop-color:#3f008d;stop-opacity:0.00507614"
         offset="1"
         id="stop5239" />
    </linearGradient>
    <linearGradient
       gradientTransform="matrix(0.35894258,0,0,0.35894258,-37.107723,168.47953)"
       inkscape:collect="always"
       xlink:href="#linearGradient5068-2"
       id="linearGradient5654-8-7-1-8"
       x1="186.08846"
       y1="339.57657"
       x2="186.19218"
       y2="330.05374"
       gradientUnits="userSpaceOnUse" />
    <linearGradient
       inkscape:collect="always"
       xlink:href="#linearGradient5068-2"
       id="linearGradient5992-4"
       x1="75.424805"
       y1="76.762817"
       x2="85.71273"
       y2="76.762817"
       gradientUnits="userSpaceOnUse"
       gradientTransform="matrix(1.3566334,0,0,1.3566334,-98.660277,169.11591)" />
    <linearGradient
       inkscape:collect="always"
       xlink:href="#linearGradient5241"
       id="linearGradient5890-2-9"
       gradientUnits="userSpaceOnUse"
       gradientTransform="matrix(1.3566334,0,0,1.3566334,-39.445259,169.44377)"
       x1="36.119751"
       y1="75.469292"
       x2="36.014446"
       y2="91.412025" />
    <linearGradient
       inkscape:collect="always"
       xlink:href="#linearGradient5068-2"
       id="linearGradient5890-2-8-7"
       gradientUnits="userSpaceOnUse"
       gradientTransform="matrix(1.3566334,0,0,1.3566334,-39.254903,169.69759)"
       x1="35.932663"
       y1="88.84613"
       x2="35.90387"
       y2="85.953903" />
    <linearGradient
       inkscape:collect="always"
       xlink:href="#linearGradient4661-8-6"
       id="linearGradient5536-5-0"
       x1="36.898121"
       y1="63.9995"
       x2="36.8176"
       y2="77.735085"
       gradientUnits="userSpaceOnUse"
       gradientTransform="matrix(1.3566334,0,0,1.3566334,-39.255154,169.31697)" />
    <linearGradient
       id="linearGradient4661-8-6"
       inkscape:collect="always">
      <stop
         id="stop4657"
         offset="0"
         style="stop-color:#0b0049;stop-opacity:1" />
      <stop
         id="stop4659"
         offset="1"
         style="stop-color:#6fe7ff;stop-opacity:0.98823529" />
    </linearGradient>
    <linearGradient
       gradientTransform="matrix(0.35894258,0,0,0.35894258,-37.170586,169.00585)"
       inkscape:collect="always"
       xlink:href="#linearGradient4661-8-6"
       id="linearGradient5654-8-7-0"
       x1="186.33846"
       y1="244.07655"
       x2="186.69218"
       y2="288.80374"
       gradientUnits="userSpaceOnUse" />
  </defs>
  <sodipodi:namedview
     id="base"
     pagecolor="#ffffff"
     bordercolor="#666666"
     borderopacity="1.0"
     inkscape:pageopacity="0.0"
     inkscape:pageshadow="2"
     inkscape:zoom="1.4"
     inkscape:cx="69.341269"
     inkscape:cy="180.82962"
     inkscape:document-units="mm"
     inkscape:current-layer="layer1"
     showgrid="false"
     inkscape:window-width="1920"
     inkscape:window-height="1017"
     inkscape:window-x="-8"
     inkscape:window-y="-8"
     inkscape:window-maximized="1"
     width="51mm" />
  <metadata
     id="metadata2554">
    <rdf:RDF>
      <cc:Work
         rdf:about="">
        <dc:format>image/svg+xml</dc:format>
        <dc:type
           rdf:resource="http://purl.org/dc/dcmitype/StillImage" />
        <dc:title></dc:title>
      </cc:Work>
    </rdf:RDF>
  </metadata>
  <g
     inkscape:label="Layer 1"
     inkscape:groupmode="layer"
     id="layer1"
     transform="translate(0,-251)">
    <path
       inkscape:connector-curvature="0"
       style="display:inline;fill:url(#linearGradient5654-8-7-0);fill-opacity:1;stroke:none;stroke-width:0.27132669;stroke-linecap:butt;stroke-linejoin:miter;stroke-miterlimit:4;stroke-dasharray:none;stroke-opacity:1"
       d="m 24.393678,256.78414 -2.792318,1.26961 0.06864,31.56105 2.682688,1.68492 14.300354,-13.27058 0.02822,-8.94742 z m 1.207226,4.61226 10.230495,9.51234 c 0.04667,0.0978 0.06038,5.59845 0.06038,5.59845 l -10.586719,10.3847 -1.691613,-1.00497 -0.08412,-23.54899 z"
       id="path5315-7-3-88-0-9"
       sodipodi:nodetypes="cccccccccccccc" />
    <path
       inkscape:connector-curvature="0"
       style="display:inline;fill:url(#linearGradient5536-5-0);fill-opacity:1;stroke:none;stroke-width:0.27132669;stroke-linecap:butt;stroke-linejoin:miter;stroke-miterlimit:4;stroke-dasharray:none;stroke-opacity:1"
       d="m 6.7469709,256.38508 -2.7923134,1.26892 -0.028761,31.25604 2.8266768,1.34254 10.7809077,-9.24769 -7.7410993,-6.09151 -0.046261,-3.21225 6.9629193,-5.95691 z m -0.6218361,3.07415 7.0512742,6.4862 -7.3366013,5.71083 -0.063762,-11.94326 z m -0.2951355,15.22421 1.6061277,1.44418 6.237339,5.09811 -5.7430903,4.95299 -2.0716429,-0.94152 z"
       id="path5317-0-7-94" />
    <path
       inkscape:connector-curvature="0"
       style="display:inline;fill:#ffffff;fill-opacity:1;stroke:none;stroke-width:0.27132669;stroke-linecap:butt;stroke-linejoin:miter;stroke-miterlimit:4;stroke-dasharray:none;stroke-opacity:1"
       d="m 3.6374075,272.56538 0.1616035,16.97917 2.8266632,1.34256 10.7808938,-9.24769 -7.741099,-6.0915 -0.046261,-3.21226 c -1.1418241,0.62542 -1.344505,0.79916 -2.9991366,-0.30962 -1.6328669,-0.24842 -1.5729037,0.64017 -2.9826639,0.53934 z m 2.0656923,2.75258 1.6061278,1.44419 6.2373244,5.09811 -5.7430758,4.95298 -2.0716293,-0.94151 z"
       id="path5317-0-7-9-9"
       sodipodi:nodetypes="cccccccccccccc" />
    <path
       inkscape:connector-curvature="0"
       style="display:inline;fill:#ee00f6;fill-opacity:1;stroke:none;stroke-width:0.27132669;stroke-linecap:butt;stroke-linejoin:miter;stroke-miterlimit:4;stroke-dasharray:none;stroke-opacity:1"
       d="m 3.8280022,272.56527 0.1616022,16.97918 2.8266633,1.34254 10.7809073,-9.24767 -7.7410989,-6.09152 -0.046261,-3.21225 c -1.141824,0.62543 -1.344505,0.79917 -2.99915,-0.30963 -1.6328671,-0.24841 -1.5729039,0.64017 -2.9826629,0.53935 z m 2.065691,2.75258 1.6061414,1.44419 6.2373244,5.0981 -5.7430772,4.95299 -2.0716416,-0.94152 z"
       id="path5317-0-7-9-0-4-1"
       sodipodi:nodetypes="cccccccccccccc" />
    <path
       inkscape:connector-curvature="0"
       style="display:inline;fill:url(#linearGradient5890-2-8-7);fill-opacity:1;stroke:none;stroke-width:0.27132669;stroke-linecap:butt;stroke-linejoin:miter;stroke-miterlimit:4;stroke-dasharray:none;stroke-opacity:1"
       d="m 3.7645525,272.31146 0.1616021,16.97917 2.8266633,1.34255 10.7809061,-9.24767 -7.7410977,-6.09152 -0.046261,-3.21226 c -1.1418241,0.62542 -1.3445051,0.79917 -2.9991502,-0.3096 -1.6328669,-0.24843 -1.5729037,0.64015 -2.9826626,0.53933 z m 2.065691,2.75259 1.60614,1.44417 6.2373255,5.09811 -5.7430755,4.953 -2.071643,-0.94153 z"
       id="path5317-0-7-9-0-8-3"
       sodipodi:nodetypes="cccccccccccccc" />
    <path
       inkscape:connector-curvature="0"
       style="display:inline;fill:url(#linearGradient5890-2-9);fill-opacity:1;stroke:none;stroke-width:0.27132669;stroke-linecap:butt;stroke-linejoin:miter;stroke-miterlimit:4;stroke-dasharray:none;stroke-opacity:1"
       d="m 3.5741993,272.05764 0.1616061,16.97919 2.8266633,1.34256 10.7808933,-9.2477 -7.7410985,-6.09152 -0.046261,-3.21225 c -1.141824,0.62542 -1.3445064,0.79917 -2.9991366,-0.3096 -1.632867,-0.24843 -1.5729037,0.64015 -2.9826666,0.53932 z m 2.0656949,2.7526 1.6061278,1.44418 6.237325,5.0981 -5.7430763,4.95301 -2.0716294,-0.94153 z"
       id="path5317-0-7-9-0-1"
       sodipodi:nodetypes="cccccccccccccc" />
    <path
       inkscape:connector-curvature="0"
       style="display:inline;fill:none;fill-opacity:1;stroke:#00e8ff;stroke-width:0.27132669;stroke-linecap:butt;stroke-linejoin:miter;stroke-miterlimit:4;stroke-dasharray:none;stroke-opacity:1"
       d="m 7.7624773,256.57532 -2.7923258,1.26892 -0.028761,31.25604 2.8266772,1.34256 10.7808943,-9.2477 -7.741099,-6.0915 -0.04626,-3.21227 6.962921,-5.9569 z m -0.6218387,3.07414 7.0512644,6.48622 -7.336605,5.71082 -0.063762,-11.94325 z m -0.295149,15.22423 1.6061318,1.44418 6.2373256,5.0981 -5.7430905,4.953 -2.0716199,-0.94151 z"
       id="path5317-0-7-2-0-4" />
    <path
       inkscape:connector-curvature="0"
       style="display:inline;fill:none;fill-opacity:1;stroke:url(#linearGradient5992-4);stroke-width:0.27132669;stroke-linecap:butt;stroke-linejoin:miter;stroke-miterlimit:4;stroke-dasharray:none;stroke-opacity:1"
       d="m 6.620329,256.32151 -2.7923132,1.26892 -0.028761,31.25604 2.8266632,1.34255 10.780908,-9.24769 -7.7411145,-6.0915 -0.046261,-3.21226 6.9629325,-5.9569 z m -0.6218359,3.07414 7.0512599,6.48622 -7.336587,5.71083 -0.063762,-11.94326 z m -0.2951491,15.22422 1.6061278,1.44418 6.2373392,5.09812 -5.7430906,4.95299 -2.0716294,-0.94152 z"
       id="path5317-0-7-2-0-9-0" />
    <path
       style="display:inline;fill:#ee00f6;fill-opacity:1;stroke:none;stroke-width:0.27132669;stroke-linecap:butt;stroke-linejoin:miter;stroke-miterlimit:4;stroke-dasharray:none;stroke-opacity:1"
       d="m 21.715914,271.74509 c 0.100798,4.9898 0.06715,11.00683 0.08071,17.299 l 2.682947,1.68466 14.300217,-13.27037 0.01819,-5.77673 c -1.275032,-0.56677 -2.247372,-0.62904 -2.804936,0 0.0095,0.78325 0.01492,1.77105 0.01885,2.60303 0.0041,0.92756 0.0068,1.6517 0.0068,1.6517 l -10.586724,10.38479 -1.691654,-1.00531 -0.0392,-10.94143 0.03947,-3.53597 c -0.879275,1.83504 -1.358425,0.66934 -2.024667,0.90663 z"
       id="path5315-7-3-88-0-5-6-4-2"
       inkscape:connector-curvature="0"
       sodipodi:nodetypes="ccccccccccccc" />
    <path
       style="display:inline;fill:url(#linearGradient5654-8-7-1-8);fill-opacity:1;stroke:none;stroke-width:0.27132669;stroke-linecap:butt;stroke-linejoin:miter;stroke-miterlimit:4;stroke-dasharray:none;stroke-opacity:1"
       d="m 21.651854,271.78972 c 0.100798,4.98979 0.06715,11.00681 0.08071,17.29899 l 2.682945,1.68465 14.300204,-13.27036 0.01819,-5.77673 c -1.275032,-0.56677 -2.247374,-0.62905 -2.804936,0 0.0095,0.78325 0.01492,1.77105 0.01886,2.60303 0.0041,0.92756 0.0068,1.65169 0.0068,1.65169 l -10.586692,10.38482 -1.691654,-1.00532 -0.0392,-10.94144 0.03947,-3.53597 c -0.879274,1.83504 -1.358437,0.66933 -2.024677,0.90664 z"
       id="path5315-7-3-88-0-5-0"
       inkscape:connector-curvature="0"
       sodipodi:nodetypes="ccccccccccccc" />
    <path
       style="display:inline;fill:url(#linearGradient5654-8-7-1-6-1);fill-opacity:1;stroke:none;stroke-width:0.27132669;stroke-linecap:butt;stroke-linejoin:miter;stroke-miterlimit:4;stroke-dasharray:none;stroke-opacity:1"
       d="m 21.524954,271.34555 c 0.100798,4.9898 0.06715,11.00683 0.08071,17.29899 l 2.682945,1.68465 14.300232,-13.27036 0.01819,-5.77673 c -1.275033,-0.56676 -2.247372,-0.62904 -2.804935,0 0.0095,0.78324 0.01492,1.77106 0.01886,2.60304 0.0041,0.92754 0.0068,1.65171 0.0068,1.65171 l -10.586736,10.38479 -1.691653,-1.00533 -0.0392,-10.94145 0.03947,-3.53595 c -0.879261,1.83504 -1.358424,0.66935 -2.024667,0.90664 z"
       id="path5315-7-3-88-0-5-6-0"
       inkscape:connector-curvature="0"
       sodipodi:nodetypes="ccccccccccccc" />
    <path
       inkscape:connector-curvature="0"
       style="display:inline;fill:none;fill-opacity:1;stroke:#00dcff;stroke-width:0.27132669;stroke-linecap:butt;stroke-linejoin:miter;stroke-miterlimit:4;stroke-dasharray:none;stroke-opacity:1"
       d="m 25.091652,257.41866 -2.792318,1.26962 0.06864,31.56105 2.682689,1.68494 14.30034,-13.27061 0.02822,-8.9474 z m 1.207227,4.61228 10.230495,9.51233 c 0.04667,0.0978 0.06038,5.59846 0.06038,5.59846 l -10.586733,10.3847 -1.691614,-1.00497 -0.08412,-23.549 z"
       id="path5315-7-3-88-0-7-6"
       sodipodi:nodetypes="cccccccccccccc" />
    <path
       inkscape:connector-curvature="0"
       style="display:inline;fill:none;fill-opacity:1;stroke:url(#linearGradient6133-6-6);stroke-width:0.27132669;stroke-linecap:butt;stroke-linejoin:miter;stroke-miterlimit:4;stroke-dasharray:none;stroke-opacity:1"
       d="m 24.012965,257.29176 -2.792318,1.26962 0.06865,31.56104 2.682688,1.68493 14.30034,-13.27058 0.02822,-8.94743 z m 1.207227,4.61227 10.230495,9.51232 c 0.04667,0.0978 0.06038,5.59847 0.06038,5.59847 l -10.586734,10.38469 -1.691614,-1.00496 -0.08411,-23.549 z"
       id="path5315-7-3-88-0-7-4-6"
       sodipodi:nodetypes="cccccccccccccc" />
  </g>
</svg>
