<?xml version="1.0" encoding="UTF-8" standalone="no"?>
<!-- Created with Inkscape (http://www.inkscape.org/) -->

<svg
   xmlns:dc="http://purl.org/dc/elements/1.1/"
   xmlns:cc="http://creativecommons.org/ns#"
   xmlns:rdf="http://www.w3.org/1999/02/22-rdf-syntax-ns#"
   xmlns:svg="http://www.w3.org/2000/svg"
   xmlns="http://www.w3.org/2000/svg"
   xmlns:xlink="http://www.w3.org/1999/xlink"
   xmlns:sodipodi="http://sodipodi.sourceforge.net/DTD/sodipodi-0.dtd"
   xmlns:inkscape="http://www.inkscape.org/namespaces/inkscape"
   width="42mm"
   height="46mm"
   viewBox="0 0 42 46"
   version="1.1"
   id="svg2557"
   inkscape:version="0.92.5 (2060ec1f9f, 2020-04-08)"
   sodipodi:docname="logo003.svg"
   inkscape:export-filename="C:\Users\Bartek\Desktop\logo03.png"
   inkscape:export-xdpi="96"
   inkscape:export-ydpi="96">
  <defs
     id="defs2551">
    <linearGradient
       inkscape:collect="always"
       xlink:href="#linearGradient1906"
       id="linearGradient1908-8"
       x1="168.73999"
       y1="82.95208"
       x2="187.12459"
       y2="82.95208"
       gradientUnits="userSpaceOnUse"
       gradientTransform="translate(-166.69686,189.01429)" />
    <linearGradient
       inkscape:collect="always"
       id="linearGradient1906">
      <stop
         style="stop-color:#ffffff;stop-opacity:1;"
         offset="0"
         id="stop1902" />
      <stop
         style="stop-color:#ffffff;stop-opacity:0;"
         offset="1"
         id="stop1904" />
    </linearGradient>
    <linearGradient
       inkscape:collect="always"
       xlink:href="#linearGradient5241"
       id="linearGradient1822-0"
       x1="130.38113"
       y1="125.52417"
       x2="130.04266"
       y2="141.95956"
       gradientUnits="userSpaceOnUse"
       gradientTransform="translate(-118.53323,146.39477)" />
    <linearGradient
       inkscape:collect="always"
       id="linearGradient5241">
      <stop
         style="stop-color:#23004d;stop-opacity:1"
         offset="0"
         id="stop5237" />
      <stop
         style="stop-color:#3f008d;stop-opacity:0.00507614"
         offset="1"
         id="stop5239" />
    </linearGradient>
    <linearGradient
       inkscape:collect="always"
       xlink:href="#linearGradient4661-8-6"
       id="linearGradient1746-7"
       x1="544.85431"
       y1="374.13593"
       x2="544.48248"
       y2="426.39255"
       gradientUnits="userSpaceOnUse"
       gradientTransform="matrix(0.26458333,0,0,0.26458333,-133.22953,156.41891)" />
    <linearGradient
       id="linearGradient4661-8-6"
       inkscape:collect="always">
      <stop
         id="stop4657"
         offset="0"
         style="stop-color:#0b0049;stop-opacity:1" />
      <stop
         id="stop4659"
         offset="1"
         style="stop-color:#6fe7ff;stop-opacity:0.98823529" />
    </linearGradient>
    <linearGradient
       inkscape:collect="always"
       xlink:href="#linearGradient1906"
       id="linearGradient2024-59"
       x1="167.106"
       y1="119.73349"
       x2="185.93031"
       y2="119.73349"
       gradientUnits="userSpaceOnUse"
       gradientTransform="translate(-146.06539,159.75877)" />
    <linearGradient
       inkscape:collect="always"
       xlink:href="#linearGradient5241"
       id="linearGradient1977-3"
       x1="179.88467"
       y1="108.88234"
       x2="179.88684"
       y2="125.2526"
       gradientUnits="userSpaceOnUse"
       gradientTransform="translate(-149.41679,170.81169)" />
    <linearGradient
       inkscape:collect="always"
       xlink:href="#linearGradient4661-8-6"
       id="linearGradient1927-73"
       x1="638.40039"
       y1="375.94922"
       x2="640.04688"
       y2="432.94922"
       gradientUnits="userSpaceOnUse"
       gradientTransform="matrix(0.26458333,0,0,0.26458333,-138.87367,163.61766)" />
  </defs>
  <sodipodi:namedview
     id="base"
     pagecolor="#ffffff"
     bordercolor="#666666"
     borderopacity="1.0"
     inkscape:pageopacity="0.0"
     inkscape:pageshadow="2"
     inkscape:zoom="1.4"
     inkscape:cx="69.341269"
     inkscape:cy="180.82962"
     inkscape:document-units="mm"
     inkscape:current-layer="layer1"
     showgrid="false"
     inkscape:window-width="1920"
     inkscape:window-height="1017"
     inkscape:window-x="-8"
     inkscape:window-y="-8"
     inkscape:window-maximized="1"
     width="51mm" />
  <metadata
     id="metadata2554">
    <rdf:RDF>
      <cc:Work
         rdf:about="">
        <dc:format>image/svg+xml</dc:format>
        <dc:type
           rdf:resource="http://purl.org/dc/dcmitype/StillImage" />
        <dc:title></dc:title>
      </cc:Work>
    </rdf:RDF>
  </metadata>
  <g
     inkscape:label="Layer 1"
     inkscape:groupmode="layer"
     id="layer1"
     transform="translate(0,-251)">
    <path
       style="display:inline;fill:#000000;fill-opacity:1;stroke:none;stroke-width:0.26899856px;stroke-linecap:butt;stroke-linejoin:miter;stroke-opacity:1"
       d="m 6.2653585,253.50702 -3.8994896,0.90978 0.0696,30.78505 3.8564996,0.96355 15.0914195,-14.07584 -2.46546,-2.29954 2.45784,-2.21226 z m 0,4.54683 9.4325995,8.79477 -3.14981,2.9414 3.13784,2.96882 -9.2813595,8.80596 z"
       id="path1693-6-5-9"
       inkscape:connector-curvature="0" />
    <path
       inkscape:connector-curvature="0"
       style="display:inline;fill:#000000;fill-opacity:1;stroke:none;stroke-width:0.26458332px;stroke-linecap:butt;stroke-linejoin:miter;stroke-opacity:1"
       d="m 25.812878,260.381 -3.70416,0.92604 0.0661,31.35312 3.66334,0.98185 14.827011,-14.80374 0.003,-3.62097 z m -0.008,4.46691 11.97343,12.06696 -12.066961,12.25455 z"
       id="path1649-6-8-8-33-9" />
    <path
       style="display:inline;fill:url(#linearGradient1927-73);fill-opacity:1;stroke:none;stroke-width:0.26458332px;stroke-linecap:butt;stroke-linejoin:miter;stroke-opacity:1"
       d="m 24.877068,262.86122 -3.70417,0.92605 0.0661,31.35312 3.66334,0.98185 14.827,-14.80374 0.003,-3.62097 z m -0.008,4.46691 11.973431,12.06697 -12.066961,12.25455 z"
       id="path1649-6-0"
       inkscape:connector-curvature="0" />
    <path
       style="display:inline;fill:#db00ff;fill-opacity:1;stroke:none;stroke-width:0.26458332px;stroke-linecap:butt;stroke-linejoin:miter;stroke-opacity:1"
       d="m 21.206998,279.77234 0.0326,15.36805 3.66334,0.98185 14.827011,-14.80374 0.0011,-1.54616 c -0.59903,0.10093 -0.732822,-0.38406 -1.658922,0.0313 -0.737338,0.33068 -1.316198,0.20882 -1.600848,-0.0313 l -11.695611,11.87731 0.0455,-11.87731 c -0.51209,0.0299 -0.72496,0.45987 -1.72972,0.051 -0.52624,-0.21415 -1.13278,-0.48144 -1.88453,-0.051 z"
       id="path1649-6-2-1"
       inkscape:connector-curvature="0"
       sodipodi:nodetypes="cccccscccsc" />
    <path
       style="display:inline;fill:url(#linearGradient1977-3);fill-opacity:1;stroke:none;stroke-width:0.26458332px;stroke-linecap:butt;stroke-linejoin:miter;stroke-opacity:1"
       d="m 21.206998,279.77234 0.0326,15.36805 3.66334,0.98185 14.827011,-14.80374 0.0011,-1.54616 c -0.59903,0.10093 -0.732822,-0.38406 -1.658922,0.0313 -0.737338,0.33068 -1.316198,0.20882 -1.600848,-0.0313 l -11.695611,11.87731 0.0455,-11.87731 c -0.51209,0.0299 -0.72496,0.45987 -1.72972,0.051 -0.52624,-0.21415 -1.13278,-0.48144 -1.88453,-0.051 z"
       id="path1649-6-2-4-8"
       inkscape:connector-curvature="0"
       sodipodi:nodetypes="cccccscccsc" />
    <path
       inkscape:connector-curvature="0"
       style="display:inline;fill:none;fill-opacity:1;stroke:#00e8ff;stroke-width:0.26458332px;stroke-linecap:butt;stroke-linejoin:miter;stroke-opacity:1"
       d="m 24.877658,262.86123 -3.70416,0.92604 0.0661,31.35312 3.66334,0.98185 14.827011,-14.80374 0.003,-3.62097 z m -0.008,4.46691 11.973431,12.06696 -12.066961,12.25455 z"
       id="path1649-6-8-23" />
    <path
       inkscape:connector-curvature="0"
       style="display:inline;fill:none;fill-opacity:1;stroke:url(#linearGradient2024-59);stroke-width:0.26458332px;stroke-linecap:butt;stroke-linejoin:miter;stroke-opacity:1"
       d="m 24.877298,262.86123 -3.70416,0.92604 0.0661,31.35312 3.66334,0.98185 14.827011,-14.80374 0.003,-3.62097 z m -0.008,4.46691 11.97343,12.06696 -12.06696,12.25455 z"
       id="path1649-6-8-8-33" />
    <path
       style="display:inline;fill:url(#linearGradient1746-7);fill-opacity:1;stroke:none;stroke-width:0.26458332px;stroke-linecap:butt;stroke-linejoin:miter;stroke-opacity:1"
       d="m 5.8798185,255.33534 -3.7041696,0.92656 0.0661,31.35312 3.6633496,0.98134 14.3355495,-14.33556 -2.34197,-2.34198 2.33474,-2.25309 z m 0,4.63073 8.9601695,8.95707 -2.99206,2.99568 2.98069,3.02359 -8.8165095,8.96845 z"
       id="path1693-6-5"
       inkscape:connector-curvature="0" />
    <path
       style="display:inline;fill:#fb00fc;fill-opacity:1;stroke:none;stroke-width:0.26458332px;stroke-linecap:butt;stroke-linejoin:miter;stroke-opacity:1"
       d="m 2.2060889,270.64303 0.0357,16.9721 3.6633396,0.98133 14.3355595,-14.33556 -2.34198,-2.34197 -0.13333,0.047 c -3.53457,-1.0538 -2.698,1.49947 -5.83375,-0.0662 l -0.0837,0.0191 2.98069,3.02358 -8.8165095,8.96845 -0.13955,-12.14345 c -2.0150297,0.7751 -1.2983897,-0.61826 -3.6664396,0.13229 z"
       id="path1693-6-27-7-8-9"
       inkscape:connector-curvature="0"
       sodipodi:nodetypes="ccccccccccccc" />
    <path
       style="display:inline;fill:url(#linearGradient1822-0);fill-opacity:1;stroke:none;stroke-width:0.26458332px;stroke-linecap:butt;stroke-linejoin:miter;stroke-opacity:1"
       d="m 2.2060889,270.64303 0.0357,16.9721 3.6633396,0.98133 14.3355595,-14.33556 -2.34198,-2.34197 -0.13333,0.047 c -3.53457,-1.0538 -2.698,1.49947 -5.83375,-0.0662 l -0.0837,0.0191 2.98069,3.02358 -8.8165095,8.96845 -0.13955,-12.14345 c -2.0150297,0.7751 -1.2983897,-0.61826 -3.6664396,0.13229 z"
       id="path1693-6-27-7-6"
       inkscape:connector-curvature="0"
       sodipodi:nodetypes="ccccccccccccc" />
    <path
       style="display:inline;fill:none;fill-opacity:1;stroke:#00f9ff;stroke-width:0.26458332px;stroke-linecap:butt;stroke-linejoin:miter;stroke-opacity:1"
       d="m 5.8798185,255.33534 -3.7041696,0.92656 0.0661,31.35312 3.6633496,0.98134 14.3355495,-14.33556 -2.34197,-2.34198 2.33474,-2.25309 z m 0,4.63073 8.9601695,8.95707 -2.99206,2.99568 2.98069,3.02359 -8.8165095,8.96845 z"
       id="path1693-6-2-3"
       inkscape:connector-curvature="0" />
    <path
       style="display:inline;fill:none;fill-opacity:1;stroke:url(#linearGradient1908-8);stroke-width:0.26458332px;stroke-linecap:butt;stroke-linejoin:miter;stroke-opacity:1"
       d="m 5.8798185,255.33533 -3.7041696,0.92657 0.0661,31.35312 3.6633496,0.98134 14.3355495,-14.33556 -2.34197,-2.34198 2.33474,-2.25309 z m 0,4.63074 8.9601695,8.95707 -2.99206,2.99568 2.98069,3.02359 -8.8165095,8.96844 z"
       id="path1693-6-2-8-5"
       inkscape:connector-curvature="0" />
  </g>
</svg>
