<?xml version="1.0" encoding="UTF-8" standalone="no"?>
<!-- Created with Inkscape (http://www.inkscape.org/) -->

<svg
   xmlns:dc="http://purl.org/dc/elements/1.1/"
   xmlns:cc="http://creativecommons.org/ns#"
   xmlns:rdf="http://www.w3.org/1999/02/22-rdf-syntax-ns#"
   xmlns:svg="http://www.w3.org/2000/svg"
   xmlns="http://www.w3.org/2000/svg"
   xmlns:xlink="http://www.w3.org/1999/xlink"
   xmlns:sodipodi="http://sodipodi.sourceforge.net/DTD/sodipodi-0.dtd"
   xmlns:inkscape="http://www.inkscape.org/namespaces/inkscape"
   width="42mm"
   height="46mm"
   viewBox="0 0 42 46"
   version="1.1"
   id="svg2557"
   inkscape:version="0.92.5 (2060ec1f9f, 2020-04-08)"
   sodipodi:docname="logo000.svg"
   inkscape:export-filename="C:\Users\Bartek\Desktop\logo03.png"
   inkscape:export-xdpi="96"
   inkscape:export-ydpi="96">
  <defs
     id="defs2551">
    <linearGradient
       gradientTransform="translate(-92.620075,205.09894)"
       inkscape:collect="always"
       xlink:href="#linearGradient5068-2"
       id="linearGradient6133-6-6-0"
       x1="114.30633"
       y1="77.829063"
       x2="127.09652"
       y2="77.829063"
       gradientUnits="userSpaceOnUse" />
    <linearGradient
       inkscape:collect="always"
       id="linearGradient5068-2">
      <stop
         style="stop-color:#ffffff;stop-opacity:1"
         offset="0"
         id="stop5064" />
      <stop
         style="stop-color:#ffffff;stop-opacity:0"
         offset="1"
         id="stop5066" />
    </linearGradient>
    <linearGradient
       gradientTransform="matrix(0.26458333,0,0,0.26458333,-21.535485,205.49996)"
       inkscape:collect="always"
       xlink:href="#linearGradient5241"
       id="linearGradient5654-8-7-1-6-1-6"
       x1="187.33846"
       y1="285.07657"
       x2="186.19218"
       y2="341.30374"
       gradientUnits="userSpaceOnUse" />
    <linearGradient
       inkscape:collect="always"
       id="linearGradient5241">
      <stop
         style="stop-color:#23004d;stop-opacity:1"
         offset="0"
         id="stop5237" />
      <stop
         style="stop-color:#3f008d;stop-opacity:0.00507614"
         offset="1"
         id="stop5239" />
    </linearGradient>
    <linearGradient
       gradientTransform="matrix(0.26458333,0,0,0.26458333,-21.535495,205.49997)"
       inkscape:collect="always"
       xlink:href="#linearGradient5068-2"
       id="linearGradient5654-8-7-1-8-8"
       x1="186.08846"
       y1="339.57657"
       x2="186.19218"
       y2="330.05374"
       gradientUnits="userSpaceOnUse" />
    <linearGradient
       inkscape:collect="always"
       xlink:href="#linearGradient5068-2"
       id="linearGradient5992-4-0"
       x1="75.424805"
       y1="76.762817"
       x2="85.71273"
       y2="76.762817"
       gradientUnits="userSpaceOnUse"
       gradientTransform="translate(-63.769078,188.71018)" />
    <linearGradient
       inkscape:collect="always"
       xlink:href="#linearGradient5241"
       id="linearGradient5890-2-9-5"
       gradientUnits="userSpaceOnUse"
       gradientTransform="translate(-20.073794,188.81154)"
       x1="36.119751"
       y1="75.469292"
       x2="36.014446"
       y2="91.412025" />
    <linearGradient
       inkscape:collect="always"
       xlink:href="#linearGradient5068-2"
       id="linearGradient5890-2-8-7-1"
       gradientUnits="userSpaceOnUse"
       gradientTransform="translate(-20.073805,188.81154)"
       x1="35.932663"
       y1="88.84613"
       x2="35.90387"
       y2="85.953903" />
    <linearGradient
       inkscape:collect="always"
       xlink:href="#linearGradient4661-8-6"
       id="linearGradient5536-5-0-6"
       x1="36.898121"
       y1="63.9995"
       x2="36.8176"
       y2="77.735085"
       gradientUnits="userSpaceOnUse"
       gradientTransform="translate(-20.073805,188.81154)" />
    <linearGradient
       id="linearGradient4661-8-6"
       inkscape:collect="always">
      <stop
         id="stop4657"
         offset="0"
         style="stop-color:#0b0049;stop-opacity:1" />
      <stop
         id="stop4659"
         offset="1"
         style="stop-color:#6fe7ff;stop-opacity:0.98823529" />
    </linearGradient>
    <linearGradient
       gradientTransform="matrix(0.26458333,0,0,0.26458333,-21.535733,205.49993)"
       inkscape:collect="always"
       xlink:href="#linearGradient4661-8-6"
       id="linearGradient5654-8-7-0-2"
       x1="186.33846"
       y1="244.07655"
       x2="186.69218"
       y2="288.80374"
       gradientUnits="userSpaceOnUse" />
  </defs>
  <sodipodi:namedview
     id="base"
     pagecolor="#ffffff"
     bordercolor="#666666"
     borderopacity="1.0"
     inkscape:pageopacity="0.0"
     inkscape:pageshadow="2"
     inkscape:zoom="1.4"
     inkscape:cx="69.341269"
     inkscape:cy="180.82962"
     inkscape:document-units="mm"
     inkscape:current-layer="layer1"
     showgrid="false"
     inkscape:window-width="1920"
     inkscape:window-height="1017"
     inkscape:window-x="-8"
     inkscape:window-y="-8"
     inkscape:window-maximized="1"
     width="51mm" />
  <metadata
     id="metadata2554">
    <rdf:RDF>
      <cc:Work
         rdf:about="">
        <dc:format>image/svg+xml</dc:format>
        <dc:type
           rdf:resource="http://purl.org/dc/dcmitype/StillImage" />
        <dc:title></dc:title>
      </cc:Work>
    </rdf:RDF>
  </metadata>
  <g
     inkscape:label="Layer 1"
     inkscape:groupmode="layer"
     id="layer1"
     transform="translate(0,-251)">
    <path
       inkscape:connector-curvature="0"
       style="display:inline;fill:url(#linearGradient5654-8-7-0-2);fill-opacity:1;stroke:none;stroke-width:0.2;stroke-linecap:butt;stroke-linejoin:miter;stroke-miterlimit:4;stroke-dasharray:none;stroke-opacity:1"
       d="m 23.844445,270.20296 -2.05827,0.93585 0.0506,23.26425 1.97746,1.24199 10.54106,-9.78201 0.0208,-6.5953 z m 0.88987,3.39979 7.54109,7.01172 c 0.0344,0.0721 0.0445,4.12672 0.0445,4.12672 l -7.80367,7.65476 -1.24692,-0.74078 -0.062,-17.35841 z"
       id="path5315-7-3-88-0-9-5"
       sodipodi:nodetypes="cccccccccccccc" />
    <path
       inkscape:connector-curvature="0"
       style="display:inline;fill:url(#linearGradient5536-5-0-6);fill-opacity:1;stroke:none;stroke-width:0.2;stroke-linecap:butt;stroke-linejoin:miter;stroke-miterlimit:4;stroke-dasharray:none;stroke-opacity:1"
       d="m 13.835225,252.99108 -2.05827,0.93535 -0.0212,23.03942 2.0836,0.98961 7.94681,-6.81665 -5.70611,-4.49016 -0.0341,-2.36782 5.13251,-4.39094 z m -0.45837,2.26601 5.19763,4.78111 -5.40795,4.20956 -0.047,-8.8036 z m -0.21755,11.22206 1.18391,1.06453 4.59766,3.75791 -4.23334,3.65095 -1.52705,-0.69401 z"
       id="path5317-0-7-94-9" />
    <path
       inkscape:connector-curvature="0"
       style="display:inline;fill:#ee00f6;fill-opacity:1;stroke:none;stroke-width:0.2;stroke-linecap:butt;stroke-linejoin:miter;stroke-miterlimit:4;stroke-dasharray:none;stroke-opacity:1"
       d="m 11.636645,264.45017 0.11912,12.51567 2.08359,0.98962 7.94681,-6.81665 -5.70611,-4.49016 -0.0341,-2.36782 c -0.84166,0.46102 -0.99106,0.58909 -2.21073,-0.22822 -1.20362,-0.18311 -1.15942,0.47188 -2.19858,0.39756 z m 1.52266,2.02898 1.18392,1.06454 4.59765,3.75791 -4.23333,3.65094 -1.52705,-0.69401 z"
       id="path5317-0-7-9-0-4-1-2"
       sodipodi:nodetypes="cccccccccccccc" />
    <path
       inkscape:connector-curvature="0"
       style="display:inline;fill:url(#linearGradient5890-2-8-7-1);fill-opacity:1;stroke:none;stroke-width:0.2;stroke-linecap:butt;stroke-linejoin:miter;stroke-miterlimit:4;stroke-dasharray:none;stroke-opacity:1"
       d="m 11.636645,264.45017 0.11912,12.51567 2.08359,0.98962 7.94681,-6.81665 -5.7061,-4.49016 -0.0341,-2.36782 c -0.84167,0.46102 -0.99107,0.58909 -2.21074,-0.22822 -1.20362,-0.18311 -1.15942,0.47188 -2.19858,0.39756 z m 1.52266,2.02898 1.18392,1.06454 4.59765,3.75791 -4.23333,3.65094 -1.52705,-0.69401 z"
       id="path5317-0-7-9-0-8-3-7"
       sodipodi:nodetypes="cccccccccccccc" />
    <path
       inkscape:connector-curvature="0"
       style="display:inline;fill:url(#linearGradient5890-2-9-5);fill-opacity:1;stroke:none;stroke-width:0.2;stroke-linecap:butt;stroke-linejoin:miter;stroke-miterlimit:4;stroke-dasharray:none;stroke-opacity:1"
       d="m 11.636655,264.45017 0.11912,12.51567 2.08359,0.98962 7.9468,-6.81665 -5.70611,-4.49016 -0.0341,-2.36782 c -0.84166,0.46102 -0.99106,0.58909 -2.21072,-0.22822 -1.20362,-0.18311 -1.15942,0.47188 -2.19858,0.39756 z m 1.52266,2.02898 1.18391,1.06454 4.59765,3.75791 -4.23333,3.65094 -1.52704,-0.69401 z"
       id="path5317-0-7-9-0-1-2"
       sodipodi:nodetypes="cccccccccccccc" />
    <path
       inkscape:connector-curvature="0"
       style="display:inline;fill:none;fill-opacity:1;stroke:#00e8ff;stroke-width:0.2;stroke-linecap:butt;stroke-linejoin:miter;stroke-miterlimit:4;stroke-dasharray:none;stroke-opacity:1"
       d="m 13.835255,252.99108 -2.05828,0.93535 -0.0212,23.03941 2.0836,0.98962 7.9468,-6.81665 -5.70611,-4.49016 -0.0341,-2.36782 5.1325,-4.39094 z m -0.45837,2.26601 5.19762,4.78111 -5.40795,4.20956 -0.047,-8.8036 z m -0.21756,11.22206 1.18391,1.06454 4.59765,3.75791 -4.23334,3.65094 -1.52703,-0.69401 z"
       id="path5317-0-7-2-0-4-1" />
    <path
       inkscape:connector-curvature="0"
       style="display:inline;fill:none;fill-opacity:1;stroke:url(#linearGradient5992-4-0);stroke-width:0.2;stroke-linecap:butt;stroke-linejoin:miter;stroke-miterlimit:4;stroke-dasharray:none;stroke-opacity:1"
       d="m 13.835235,252.99108 -2.05827,0.93535 -0.0212,23.03941 2.08359,0.98962 7.94681,-6.81664 -5.70612,-4.49017 -0.0341,-2.36782 5.13251,-4.39094 z m -0.45837,2.26602 5.19763,4.7811 -5.40795,4.20956 -0.047,-8.8036 z m -0.21756,11.22205 1.18391,1.06454 4.59767,3.75791 -4.23335,3.65094 -1.52704,-0.69401 z"
       id="path5317-0-7-2-0-9-0-9" />
    <path
       style="display:inline;fill:#ee00f6;fill-opacity:1;stroke:none;stroke-width:0.2;stroke-linecap:butt;stroke-linejoin:miter;stroke-miterlimit:4;stroke-dasharray:none;stroke-opacity:1"
       d="m 21.777275,281.65166 c 0.0743,3.67806 0.0495,8.11332 0.0595,12.7514 l 1.97765,1.24179 10.54096,-9.78184 0.0134,-4.25813 c -0.93985,-0.41777 -1.65658,-0.46367 -2.06757,0 0.007,0.57735 0.011,1.30547 0.0139,1.91874 0.003,0.68372 0.005,1.2175 0.005,1.2175 l -7.80367,7.65482 -1.24695,-0.74103 -0.0289,-8.06515 0.0291,-2.60641 c -0.64813,1.35264 -1.00132,0.49339 -1.49242,0.66831 z"
       id="path5315-7-3-88-0-5-6-4-2-7"
       inkscape:connector-curvature="0"
       sodipodi:nodetypes="ccccccccccccc" />
    <path
       style="display:inline;fill:url(#linearGradient5654-8-7-1-8-8);fill-opacity:1;stroke:none;stroke-width:0.2;stroke-linecap:butt;stroke-linejoin:miter;stroke-miterlimit:4;stroke-dasharray:none;stroke-opacity:1"
       d="m 21.777295,281.65186 c 0.0743,3.67806 0.0495,8.11332 0.0595,12.7514 l 1.97765,1.24179 10.54095,-9.78183 0.0134,-4.25813 c -0.93985,-0.41778 -1.656579,-0.46368 -2.06757,0 0.007,0.57734 0.011,1.30546 0.0139,1.91873 0.003,0.68372 0.005,1.2175 0.005,1.2175 l -7.80365,7.65484 -1.24695,-0.74104 -0.0289,-8.06515 0.0291,-2.60642 c -0.64813,1.35264 -1.00133,0.49339 -1.49243,0.66831 z"
       id="path5315-7-3-88-0-5-0-9"
       inkscape:connector-curvature="0"
       sodipodi:nodetypes="ccccccccccccc" />
    <path
       style="display:inline;fill:url(#linearGradient5654-8-7-1-6-1-6);fill-opacity:1;stroke:none;stroke-width:0.2;stroke-linecap:butt;stroke-linejoin:miter;stroke-miterlimit:4;stroke-dasharray:none;stroke-opacity:1"
       d="m 21.777305,281.65186 c 0.0743,3.67806 0.0495,8.11332 0.0595,12.7514 l 1.97765,1.24179 10.54097,-9.78184 0.0134,-4.25812 c -0.93985,-0.41778 -1.65658,-0.46368 -2.06757,0 0.007,0.57734 0.011,1.30546 0.0139,1.91873 0.003,0.68372 0.005,1.2175 0.005,1.2175 l -7.80368,7.65484 -1.24695,-0.74104 -0.0289,-8.06515 0.0291,-2.60642 c -0.64812,1.35264 -1.00132,0.49339 -1.49242,0.66831 z"
       id="path5315-7-3-88-0-5-6-0-5"
       inkscape:connector-curvature="0"
       sodipodi:nodetypes="ccccccccccccc" />
    <path
       inkscape:connector-curvature="0"
       style="display:inline;fill:none;fill-opacity:1;stroke:#00dcff;stroke-width:0.2;stroke-linecap:butt;stroke-linejoin:miter;stroke-miterlimit:4;stroke-dasharray:none;stroke-opacity:1"
       d="m 23.844665,270.20296 -2.05827,0.93585 0.0506,23.26425 1.97746,1.24199 10.54105,-9.78201 0.0208,-6.5953 z m 0.88987,3.39979 7.54109,7.01172 c 0.0344,0.0721 0.0445,4.12672 0.0445,4.12672 l -7.80368,7.65476 -1.24692,-0.74078 -0.062,-17.35841 z"
       id="path5315-7-3-88-0-7-6-8"
       sodipodi:nodetypes="cccccccccccccc" />
    <path
       inkscape:connector-curvature="0"
       style="display:inline;fill:none;fill-opacity:1;stroke:url(#linearGradient6133-6-6-0);stroke-width:0.2;stroke-linecap:butt;stroke-linejoin:miter;stroke-miterlimit:4;stroke-dasharray:none;stroke-opacity:1"
       d="m 23.844665,270.20296 -2.05827,0.93585 0.0506,23.26425 1.97746,1.24199 10.54105,-9.78201 0.0208,-6.5953 z m 0.88987,3.39979 7.54109,7.01172 c 0.0344,0.0721 0.0445,4.12672 0.0445,4.12672 l -7.80368,7.65475 -1.24692,-0.74077 -0.062,-17.35841 z"
       id="path5315-7-3-88-0-7-4-6-0"
       sodipodi:nodetypes="cccccccccccccc" />
  </g>
</svg>
