<?xml version="1.0" encoding="UTF-8" standalone="no"?>
<!-- Created with Inkscape (http://www.inkscape.org/) -->

<svg
   xmlns:dc="http://purl.org/dc/elements/1.1/"
   xmlns:cc="http://creativecommons.org/ns#"
   xmlns:rdf="http://www.w3.org/1999/02/22-rdf-syntax-ns#"
   xmlns:svg="http://www.w3.org/2000/svg"
   xmlns="http://www.w3.org/2000/svg"
   xmlns:xlink="http://www.w3.org/1999/xlink"
   xmlns:sodipodi="http://sodipodi.sourceforge.net/DTD/sodipodi-0.dtd"
   xmlns:inkscape="http://www.inkscape.org/namespaces/inkscape"
   width="42mm"
   height="42mm"
   viewBox="0 0 42 42"
   version="1.1"
   id="svg2557"
   inkscape:version="0.92.5 (2060ec1f9f, 2020-04-08)"
   sodipodi:docname="react002.svg"
   inkscape:export-filename="C:\Users\Bartek\Desktop\logo03.png"
   inkscape:export-xdpi="96"
   inkscape:export-ydpi="96">
  <defs
     id="defs2551">
    <linearGradient
       gradientTransform="matrix(1.3566334,0,0,1.3566334,-131.71913,111.70609)"
       inkscape:collect="always"
       xlink:href="#linearGradient5068-2"
       id="linearGradient6133-6-6"
       x1="114.30633"
       y1="77.829063"
       x2="127.09652"
       y2="77.829063"
       gradientUnits="userSpaceOnUse" />
    <linearGradient
       inkscape:collect="always"
       id="linearGradient5068-2">
      <stop
         style="stop-color:#ffffff;stop-opacity:1"
         offset="0"
         id="stop5064" />
      <stop
         style="stop-color:#ffffff;stop-opacity:0"
         offset="1"
         id="stop5066" />
    </linearGradient>
    <linearGradient
       gradientTransform="matrix(0.35894258,0,0,0.35894258,-34.966765,110.77198)"
       inkscape:collect="always"
       xlink:href="#linearGradient5241"
       id="linearGradient5654-8-7-1-6-1"
       x1="187.33846"
       y1="285.07657"
       x2="186.19218"
       y2="341.30374"
       gradientUnits="userSpaceOnUse" />
    <linearGradient
       inkscape:collect="always"
       id="linearGradient5241">
      <stop
         style="stop-color:#23004d;stop-opacity:1"
         offset="0"
         id="stop5237" />
      <stop
         style="stop-color:#3f008d;stop-opacity:0.00507614"
         offset="1"
         id="stop5239" />
    </linearGradient>
    <linearGradient
       gradientTransform="matrix(0.35894258,0,0,0.35894258,-34.839866,111.21614)"
       inkscape:collect="always"
       xlink:href="#linearGradient5068-2"
       id="linearGradient5654-8-7-1-8"
       x1="186.08846"
       y1="339.57657"
       x2="186.19218"
       y2="330.05374"
       gradientUnits="userSpaceOnUse" />
    <linearGradient
       inkscape:collect="always"
       xlink:href="#linearGradient5068-2"
       id="linearGradient5992-4"
       x1="75.424805"
       y1="76.762817"
       x2="85.71273"
       y2="76.762817"
       gradientUnits="userSpaceOnUse"
       gradientTransform="matrix(1.3566334,0,0,1.3566334,-96.39242,111.85252)" />
    <linearGradient
       inkscape:collect="always"
       xlink:href="#linearGradient5241"
       id="linearGradient5890-2-9"
       gradientUnits="userSpaceOnUse"
       gradientTransform="matrix(1.3566334,0,0,1.3566334,-37.177402,112.18038)"
       x1="36.119751"
       y1="75.469292"
       x2="36.014446"
       y2="91.412025" />
    <linearGradient
       inkscape:collect="always"
       xlink:href="#linearGradient5068-2"
       id="linearGradient5890-2-8-7"
       gradientUnits="userSpaceOnUse"
       gradientTransform="matrix(1.3566334,0,0,1.3566334,-36.987046,112.4342)"
       x1="35.932663"
       y1="88.84613"
       x2="35.90387"
       y2="85.953903" />
    <linearGradient
       inkscape:collect="always"
       xlink:href="#linearGradient4661-8-6"
       id="linearGradient5536-5-0"
       x1="36.898121"
       y1="63.9995"
       x2="36.8176"
       y2="77.735085"
       gradientUnits="userSpaceOnUse"
       gradientTransform="matrix(1.3566334,0,0,1.3566334,-36.987297,112.05358)" />
    <linearGradient
       id="linearGradient4661-8-6"
       inkscape:collect="always">
      <stop
         id="stop4657"
         offset="0"
         style="stop-color:#0b0049;stop-opacity:1" />
      <stop
         id="stop4659"
         offset="1"
         style="stop-color:#6fe7ff;stop-opacity:0.98823529" />
    </linearGradient>
    <linearGradient
       gradientTransform="matrix(0.35894258,0,0,0.35894258,-34.902729,111.74246)"
       inkscape:collect="always"
       xlink:href="#linearGradient4661-8-6"
       id="linearGradient5654-8-7-0"
       x1="186.33846"
       y1="244.07655"
       x2="186.69218"
       y2="288.80374"
       gradientUnits="userSpaceOnUse" />
    <linearGradient
       inkscape:collect="always"
       xlink:href="#linearGradient4661-8-6"
       id="linearGradient903"
       x1="81.9272"
       y1="11.773812"
       x2="81.683403"
       y2="95.20443"
       gradientUnits="userSpaceOnUse"
       gradientTransform="matrix(0.26458333,0,0,0.26458333,51.426943,195.92643)" />
    <linearGradient
       inkscape:collect="always"
       xlink:href="#linearGradient5241"
       id="linearGradient962"
       x1="30.565828"
       y1="284.56216"
       x2="30.538074"
       y2="296.64255"
       gradientUnits="userSpaceOnUse"
       gradientTransform="translate(41.510418,-63.496095)" />
    <linearGradient
       inkscape:collect="always"
       xlink:href="#linearGradient4661-8-6"
       id="linearGradient1719"
       x1="79.271751"
       y1="2.3727009"
       x2="80.435349"
       y2="87.932625"
       gradientUnits="userSpaceOnUse"
       gradientTransform="matrix(0.26458333,0,0,0.26458333,70.379167,255)" />
    <linearGradient
       inkscape:collect="always"
       xlink:href="#linearGradient5241"
       id="linearGradient1769"
       x1="12.287461"
       y1="271.74301"
       x2="12.098264"
       y2="288.03464"
       gradientUnits="userSpaceOnUse"
       gradientTransform="translate(80.294866,5.5191158)" />
    <linearGradient
       inkscape:collect="always"
       xlink:href="#linearGradient4661-8-6"
       id="linearGradient929"
       x1="78.513672"
       y1="4.0439444"
       x2="78.791016"
       y2="85.043945"
       gradientUnits="userSpaceOnUse" />
    <linearGradient
       inkscape:collect="always"
       xlink:href="#linearGradient5241"
       id="linearGradient979"
       x1="37.170254"
       y1="280.16202"
       x2="38.039391"
       y2="301.30304"
       gradientUnits="userSpaceOnUse"
       gradientTransform="translate(-16.249316,-4.8870035)" />
  </defs>
  <sodipodi:namedview
     id="base"
     pagecolor="#ffffff"
     bordercolor="#666666"
     borderopacity="1.0"
     inkscape:pageopacity="0.0"
     inkscape:pageshadow="2"
     inkscape:zoom="2.8284271"
     inkscape:cx="1.0284554"
     inkscape:cy="67.78242"
     inkscape:document-units="mm"
     inkscape:current-layer="layer1"
     showgrid="false"
     inkscape:window-width="1920"
     inkscape:window-height="1017"
     inkscape:window-x="-8"
     inkscape:window-y="-8"
     inkscape:window-maximized="1"
     width="51mm"
     inkscape:snap-global="false" />
  <metadata
     id="metadata2554">
    <rdf:RDF>
      <cc:Work
         rdf:about="">
        <dc:format>image/svg+xml</dc:format>
        <dc:type
           rdf:resource="http://purl.org/dc/dcmitype/StillImage" />
        <dc:title />
      </cc:Work>
    </rdf:RDF>
  </metadata>
  <g
     inkscape:groupmode="layer"
     id="layer2"
     inkscape:label="Layer 2"
     style="display:inline;opacity:0.08974358" />
  <g
     inkscape:label="Layer 1"
     inkscape:groupmode="layer"
     id="layer1"
     transform="translate(0,-255)">
    <path
       inkscape:connector-curvature="0"
       style="display:inline;fill:url(#linearGradient5654-8-7-0);fill-opacity:1;stroke:none;stroke-width:0.27132669;stroke-linecap:butt;stroke-linejoin:miter;stroke-miterlimit:4;stroke-dasharray:none;stroke-opacity:1"
       d="m 26.661535,199.52075 -2.792318,1.26961 0.06864,31.56105 2.682688,1.68492 14.300354,-13.27058 0.02822,-8.94742 z m 1.207226,4.61226 10.230495,9.51234 c 0.04667,0.0978 0.06038,5.59845 0.06038,5.59845 l -10.586719,10.3847 -1.691613,-1.00497 -0.08412,-23.54899 z"
       id="path5315-7-3-88-0-9"
       sodipodi:nodetypes="cccccccccccccc" />
    <path
       inkscape:connector-curvature="0"
       style="display:inline;fill:url(#linearGradient5536-5-0);fill-opacity:1;stroke:none;stroke-width:0.27132669;stroke-linecap:butt;stroke-linejoin:miter;stroke-miterlimit:4;stroke-dasharray:none;stroke-opacity:1"
       d="m 9.014828,199.12169 -2.7923134,1.26892 -0.028761,31.25604 2.8266768,1.34254 10.7809076,-9.24769 -7.741099,-6.09151 -0.04626,-3.21225 6.962919,-5.95691 z m -0.6218361,3.07415 7.0512741,6.4862 -7.3366012,5.71083 -0.063762,-11.94326 z m -0.2951355,15.22421 1.6061277,1.44418 6.2373389,5.09811 -5.74309,4.95299 -2.0716431,-0.94152 z"
       id="path5317-0-7-94" />
    <path
       inkscape:connector-curvature="0"
       style="display:inline;fill:#ffffff;fill-opacity:1;stroke:none;stroke-width:0.27132669;stroke-linecap:butt;stroke-linejoin:miter;stroke-miterlimit:4;stroke-dasharray:none;stroke-opacity:1"
       d="m 5.9052646,215.30199 0.1616035,16.97917 2.8266632,1.34256 10.7808937,-9.24769 -7.741099,-6.0915 -0.04626,-3.21226 c -1.141824,0.62542 -1.344505,0.79916 -2.9991365,-0.30962 -1.6328669,-0.24842 -1.5729037,0.64017 -2.9826639,0.53934 z m 2.0656923,2.75258 1.6061278,1.44419 6.2373243,5.09811 -5.743076,4.95298 -2.071629,-0.94151 z"
       id="path5317-0-7-9-9"
       sodipodi:nodetypes="cccccccccccccc" />
    <path
       inkscape:connector-curvature="0"
       style="display:inline;fill:#ee00f6;fill-opacity:1;stroke:none;stroke-width:0.27132669;stroke-linecap:butt;stroke-linejoin:miter;stroke-miterlimit:4;stroke-dasharray:none;stroke-opacity:1"
       d="m 6.0958593,215.30188 0.1616022,16.97918 2.8266633,1.34254 10.7809072,-9.24767 -7.741099,-6.09152 -0.04626,-3.21225 c -1.141824,0.62543 -1.344505,0.79917 -2.9991498,-0.30963 -1.6328671,-0.24841 -1.5729039,0.64017 -2.9826629,0.53935 z m 2.065691,2.75258 1.6061414,1.44419 6.2373243,5.0981 -5.743077,4.95299 -2.0716417,-0.94152 z"
       id="path5317-0-7-9-0-4-1"
       sodipodi:nodetypes="cccccccccccccc" />
    <path
       inkscape:connector-curvature="0"
       style="display:inline;fill:url(#linearGradient5890-2-8-7);fill-opacity:1;stroke:none;stroke-width:0.27132669;stroke-linecap:butt;stroke-linejoin:miter;stroke-miterlimit:4;stroke-dasharray:none;stroke-opacity:1"
       d="m 6.0324096,215.04807 0.1616021,16.97917 2.8266633,1.34255 10.780906,-9.24767 -7.741098,-6.09152 -0.04626,-3.21226 c -1.141824,0.62542 -1.344505,0.79917 -2.9991498,-0.3096 -1.6328669,-0.24843 -1.5729037,0.64015 -2.9826626,0.53933 z m 2.065691,2.75259 1.60614,1.44417 6.2373254,5.09811 -5.743075,4.953 -2.0716434,-0.94153 z"
       id="path5317-0-7-9-0-8-3"
       sodipodi:nodetypes="cccccccccccccc" />
    <path
       inkscape:connector-curvature="0"
       style="display:inline;fill:url(#linearGradient5890-2-9);fill-opacity:1;stroke:none;stroke-width:0.27132669;stroke-linecap:butt;stroke-linejoin:miter;stroke-miterlimit:4;stroke-dasharray:none;stroke-opacity:1"
       d="m 5.8420564,214.79425 0.1616061,16.97919 2.8266633,1.34256 10.7808932,-9.2477 -7.741098,-6.09152 -0.04626,-3.21225 c -1.141824,0.62542 -1.344507,0.79917 -2.999137,-0.3096 -1.632867,-0.24843 -1.5729037,0.64015 -2.9826666,0.53932 z m 2.0656949,2.7526 1.6061278,1.44418 6.2373249,5.0981 -5.743076,4.95301 -2.0716296,-0.94153 z"
       id="path5317-0-7-9-0-1"
       sodipodi:nodetypes="cccccccccccccc" />
    <path
       inkscape:connector-curvature="0"
       style="display:inline;fill:none;fill-opacity:1;stroke:#00e8ff;stroke-width:0.27132669;stroke-linecap:butt;stroke-linejoin:miter;stroke-miterlimit:4;stroke-dasharray:none;stroke-opacity:1"
       d="m 10.030334,199.31193 -2.7923254,1.26892 -0.028761,31.25604 2.8266774,1.34256 10.780894,-9.2477 -7.741099,-6.0915 -0.04626,-3.21227 6.962921,-5.9569 z m -0.6218383,3.07414 7.0512643,6.48622 -7.3366049,5.71082 -0.063762,-11.94325 z m -0.295149,15.22423 1.6061323,1.44418 6.237325,5.0981 -5.74309,4.953 -2.0716203,-0.94151 z"
       id="path5317-0-7-2-0-4" />
    <path
       inkscape:connector-curvature="0"
       style="display:inline;fill:none;fill-opacity:1;stroke:url(#linearGradient5992-4);stroke-width:0.27132669;stroke-linecap:butt;stroke-linejoin:miter;stroke-miterlimit:4;stroke-dasharray:none;stroke-opacity:1"
       d="m 8.8881861,199.05812 -2.7923132,1.26892 -0.028761,31.25604 2.8266632,1.34255 10.7809079,-9.24769 -7.741114,-6.0915 -0.04626,-3.21226 6.962932,-5.9569 z m -0.6218359,3.07414 7.0512598,6.48622 -7.3365869,5.71083 -0.063762,-11.94326 z m -0.2951491,15.22422 1.6061278,1.44418 6.2373391,5.09812 -5.74309,4.95299 -2.0716299,-0.94152 z"
       id="path5317-0-7-2-0-9-0" />
    <path
       style="display:inline;fill:#ee00f6;fill-opacity:1;stroke:none;stroke-width:0.27132669;stroke-linecap:butt;stroke-linejoin:miter;stroke-miterlimit:4;stroke-dasharray:none;stroke-opacity:1"
       d="m 23.983771,214.4817 c 0.100798,4.9898 0.06715,11.00683 0.08071,17.299 l 2.682947,1.68466 14.300217,-13.27037 0.01819,-5.77673 c -1.275032,-0.56677 -2.247372,-0.62904 -2.804936,0 0.0095,0.78325 0.01492,1.77105 0.01885,2.60303 0.0041,0.92756 0.0068,1.6517 0.0068,1.6517 l -10.586724,10.38479 -1.691654,-1.00531 -0.0392,-10.94143 0.03947,-3.53597 c -0.879275,1.83504 -1.358425,0.66934 -2.024667,0.90663 z"
       id="path5315-7-3-88-0-5-6-4-2"
       inkscape:connector-curvature="0"
       sodipodi:nodetypes="ccccccccccccc" />
    <path
       style="display:inline;fill:url(#linearGradient5654-8-7-1-8);fill-opacity:1;stroke:none;stroke-width:0.27132669;stroke-linecap:butt;stroke-linejoin:miter;stroke-miterlimit:4;stroke-dasharray:none;stroke-opacity:1"
       d="m 23.919711,214.52633 c 0.100798,4.98979 0.06715,11.00681 0.08071,17.29899 l 2.682945,1.68465 14.300204,-13.27036 0.01819,-5.77673 c -1.275032,-0.56677 -2.247374,-0.62905 -2.804936,0 0.0095,0.78325 0.01492,1.77105 0.01886,2.60303 0.0041,0.92756 0.0068,1.65169 0.0068,1.65169 l -10.586692,10.38482 -1.691654,-1.00532 -0.0392,-10.94144 0.03947,-3.53597 c -0.879274,1.83504 -1.358437,0.66933 -2.024677,0.90664 z"
       id="path5315-7-3-88-0-5-0"
       inkscape:connector-curvature="0"
       sodipodi:nodetypes="ccccccccccccc" />
    <path
       style="display:inline;fill:url(#linearGradient5654-8-7-1-6-1);fill-opacity:1;stroke:none;stroke-width:0.27132669;stroke-linecap:butt;stroke-linejoin:miter;stroke-miterlimit:4;stroke-dasharray:none;stroke-opacity:1"
       d="m 23.792811,214.08216 c 0.100798,4.9898 0.06715,11.00683 0.08071,17.29899 l 2.682945,1.68465 14.300232,-13.27036 0.01819,-5.77673 c -1.275033,-0.56676 -2.247372,-0.62904 -2.804935,0 0.0095,0.78324 0.01492,1.77106 0.01886,2.60304 0.0041,0.92754 0.0068,1.65171 0.0068,1.65171 l -10.586736,10.38479 -1.691653,-1.00533 -0.0392,-10.94145 0.03947,-3.53595 c -0.879261,1.83504 -1.358424,0.66935 -2.024667,0.90664 z"
       id="path5315-7-3-88-0-5-6-0"
       inkscape:connector-curvature="0"
       sodipodi:nodetypes="ccccccccccccc" />
    <path
       inkscape:connector-curvature="0"
       style="display:inline;fill:none;fill-opacity:1;stroke:#00dcff;stroke-width:0.27132669;stroke-linecap:butt;stroke-linejoin:miter;stroke-miterlimit:4;stroke-dasharray:none;stroke-opacity:1"
       d="m 27.359509,200.15527 -2.792318,1.26962 0.06864,31.56105 2.682689,1.68494 14.30034,-13.27061 0.02822,-8.9474 z m 1.207227,4.61228 10.230495,9.51233 c 0.04667,0.0978 0.06038,5.59846 0.06038,5.59846 l -10.586733,10.3847 -1.691614,-1.00497 -0.08412,-23.549 z"
       id="path5315-7-3-88-0-7-6"
       sodipodi:nodetypes="cccccccccccccc" />
    <path
       inkscape:connector-curvature="0"
       style="display:inline;fill:none;fill-opacity:1;stroke:url(#linearGradient6133-6-6);stroke-width:0.27132669;stroke-linecap:butt;stroke-linejoin:miter;stroke-miterlimit:4;stroke-dasharray:none;stroke-opacity:1"
       d="m 26.280822,200.02837 -2.792318,1.26962 0.06865,31.56104 2.682688,1.68493 14.30034,-13.27058 0.02822,-8.94743 z m 1.207227,4.61227 10.230495,9.51232 c 0.04667,0.0978 0.06038,5.59847 0.06038,5.59847 l -10.586734,10.38469 -1.691614,-1.00496 -0.08411,-23.549 z"
       id="path5315-7-3-88-0-7-4-6"
       sodipodi:nodetypes="cccccccccccccc" />
    <path
       style="opacity:1;fill:url(#linearGradient903);fill-opacity:1;fill-rule:nonzero;stroke:none;stroke-width:0.26499999;stroke-linejoin:round;stroke-miterlimit:4;stroke-dasharray:0.26499998, 0.52999996;stroke-dashoffset:0;stroke-opacity:1;paint-order:normal"
       d="m 70.670211,198.77122 c -9.032104,0 -16.303396,8.01656 -16.303396,17.97409 v 0.26717 c 0,9.71019 6.915562,17.5708 15.634703,17.95549 l -0.03772,-17.74103 h -2.34921 v -4.31395 h 2.340425 l -5.16e-4,-0.17363 c 0.07919,-3.39479 1.407385,-6.97619 8.090463,-6.10713 L 78,210.67488 c -1.529825,0.0881 -3.297108,-0.27545 -3.155879,2.1761 v 0.062 h 3.194638 v 4.31395 h -3.179651 l 0.06046,17.7307 c 8.606005,-0.51658 15.394925,-8.32398 15.394925,-17.94516 v -0.26717 c 0,-9.95753 -7.271292,-17.97409 -16.303396,-17.97409 z"
       id="rect852"
       inkscape:connector-curvature="0" />
    <path
       style="opacity:1;fill:#ff00ff;fill-opacity:1;fill-rule:nonzero;stroke:none;stroke-width:0.26499999;stroke-linejoin:round;stroke-miterlimit:4;stroke-dasharray:0.26499998, 0.52999996;stroke-dashoffset:0;stroke-opacity:1;paint-order:normal"
       d="m 90.787636,217.42124 c -0.246022,0.0738 -0.751197,7.57651 -8.512895,3.9633 -3.068166,-1.77319 -4.006899,1.09074 -6.902181,-0.10462 v 12.70981 l 0.02015,1.64383 c 8.606003,-0.51658 15.394926,-8.32398 15.394926,-17.94516 v -0.26716 c 0,-2.64497 0.10062,0.003 0,0 z m -35.57767,-3.59 c -0.287338,-0.0332 -0.370003,0.94448 -0.370003,3.58945 v 0.26717 c 0,9.7102 6.915563,17.57079 15.634704,17.95549 l -0.0478,-14.31269 c -2.548376,1.04311 -3.638052,-1.66746 -6.404653,-0.2329 -6.929208,3.59298 -9.304271,-2.83836 -9.217803,-3.61657 z"
       id="rect852-9"
       inkscape:connector-curvature="0"
       sodipodi:nodetypes="cccccssccsscccsc" />
    <path
       style="opacity:1;fill:url(#linearGradient962);fill-opacity:1;fill-rule:nonzero;stroke:none;stroke-width:0.26499999;stroke-linejoin:round;stroke-miterlimit:4;stroke-dasharray:0.26499998, 0.52999997;stroke-dashoffset:0;stroke-opacity:1;paint-order:normal"
       d="m 90.449676,217.21845 c -0.246023,0.0738 -0.751196,7.57651 -8.512894,3.96331 -3.068166,-1.7732 -4.006899,1.09073 -6.902181,-0.10463 v 12.70982 l 0.02015,1.64382 c 8.606003,-0.51657 15.394925,-8.32397 15.394925,-17.94515 v -0.26717 c 0,-2.64497 0.100619,0.003 0,0 z m -35.577669,-3.59 c 0.01882,-0.28863 -0.370003,0.94452 -0.370003,3.58948 v 0.26717 c 0,9.7102 6.915563,17.57079 15.634705,17.95549 l -0.0478,-14.31271 c -2.548377,1.04311 -3.63805,-1.66744 -6.404652,-0.23288 -6.929208,3.59298 -9.065984,-3.37596 -9.015027,-4.15729 z"
       id="rect852-9-2"
       inkscape:connector-curvature="0"
       sodipodi:nodetypes="cccccsscssscccss" />
    <path
       style="opacity:1;fill:none;fill-opacity:1;fill-rule:nonzero;stroke:#ff00fb;stroke-width:0.30000001;stroke-linejoin:round;stroke-miterlimit:4;stroke-dasharray:none;stroke-dashoffset:0;stroke-opacity:1;paint-order:normal"
       d="m 70.556309,198.49239 c -9.032104,0 -16.303397,8.01656 -16.303397,17.97409 v 0.26717 c 0,9.71019 6.915563,17.5708 15.634704,17.95549 l -0.03772,-17.74103 h -2.349211 v -4.31395 h 2.340426 l -5.29e-4,-0.17363 c 0.07919,-3.39479 1.407384,-6.97619 8.090462,-6.10713 l -0.04496,4.04265 c -1.529825,0.0881 -3.297108,-0.27545 -3.155879,2.1761 v 0.062 h 3.194652 v 4.31395 h -3.179652 l 0.06046,17.7307 c 8.606005,-0.51658 15.394925,-8.32398 15.394925,-17.94516 v -0.26717 c 0,-9.95753 -7.271292,-17.97409 -16.303395,-17.97409 z"
       id="rect852-8-7"
       inkscape:connector-curvature="0" />
    <path
       style="opacity:1;fill:none;fill-opacity:1;fill-rule:nonzero;stroke:#00f0ff;stroke-width:0.3;stroke-linejoin:round;stroke-miterlimit:4;stroke-dasharray:none;stroke-dashoffset:0;stroke-opacity:1;paint-order:normal"
       d="m 70.940577,198.77122 c -9.032105,0 -16.303396,8.01656 -16.303396,17.97409 v 0.26717 c 0,9.71019 6.915562,17.5708 15.634703,17.95549 l -0.03772,-17.74103 h -2.349211 v -4.31395 h 2.340426 l -5.3e-4,-0.17363 c 0.07919,-3.39479 1.407385,-6.97619 8.090463,-6.10713 l -0.04496,4.04265 c -1.529825,0.0881 -3.297108,-0.27545 -3.155879,2.1761 v 0.062 h 3.194652 v 4.31395 h -3.179652 l 0.06046,17.7307 c 8.606004,-0.51658 15.394924,-8.32398 15.394924,-17.94516 v -0.26717 c 10e-7,-9.95753 -7.271291,-17.97409 -16.303394,-17.97409 z"
       id="rect852-8"
       inkscape:connector-curvature="0" />
    <path
       style="opacity:1;fill:none;fill-opacity:1;fill-rule:nonzero;stroke:#e800ff;stroke-width:0.30000001;stroke-linejoin:round;stroke-miterlimit:4;stroke-dasharray:none;stroke-dashoffset:0;stroke-opacity:1;paint-order:normal"
       d="m -60.720434,251.50201 c -1.853473,0 -3.345533,1.49206 -3.345533,3.34553 v 32.88275 c 0,1.85347 1.49206,3.34553 3.345533,3.34553 h 32.404741 c 1.853475,0 3.345532,-1.49206 3.345532,-3.34553 v -32.88275 c 0,-1.85347 -1.492057,-3.34553 -3.345532,-3.34553 z m 5.23534,5.72471 h 0.270785 c 1.75995,0 3.17655,1.41712 3.17655,3.17707 v 0.33796 c 0,1.75995 -1.4166,3.17655 -3.17655,3.17655 h -0.270785 c -1.759951,0 -3.176551,-1.4166 -3.176551,-3.17655 v -0.33796 c 0,-1.75995 1.4166,-3.17707 3.176551,-3.17707 z m 18.177184,8.76019 c 3.233351,0.0786 6.245043,2.33559 6.31848,5.81825 l -0.01241,0.008 0.120404,13.19351 h -5.475113 v -9.65316 l -0.0011,5.3e-4 c 0.0013,-0.0221 5.3e-5,-0.0426 0.0011,-0.0646 v -0.52349 c -0.09709,-2.29296 -1.54478,-3.56609 -3.205487,-3.57911 -1.791088,-0.0141 -3.041507,0.62316 -3.486092,3.5171 v 10.43812 h -5.67769 v -18.65519 h 5.67769 v 2.24327 c 1.537076,-1.95943 3.682953,-2.79349 5.740217,-2.7435 z m -20.880378,0.50023 h 5.67769 v 18.65519 h -5.67769 z"
       id="rect1661-8-7"
       inkscape:connector-curvature="0" />
    <path
       style="opacity:1;fill:none;fill-opacity:1;fill-rule:nonzero;stroke:#00fdff;stroke-width:0.30000001;stroke-linejoin:round;stroke-miterlimit:4;stroke-dasharray:none;stroke-dashoffset:0;stroke-opacity:1;paint-order:normal"
       d="m -61.150323,211.99606 c -1.853473,0 -3.345533,1.49206 -3.345533,3.34553 v 32.88275 c 0,1.85347 1.49206,3.34553 3.345533,3.34553 h 32.404741 c 1.853473,0 3.345531,-1.49206 3.345531,-3.34553 v -32.88275 c 0,-1.85347 -1.492058,-3.34553 -3.345531,-3.34553 z m 5.23534,5.72471 h 0.270785 c 1.75995,0 3.17655,1.41712 3.17655,3.17707 v 0.33796 c 0,1.75995 -1.4166,3.17655 -3.17655,3.17655 h -0.270785 c -1.759951,0 -3.176551,-1.4166 -3.176551,-3.17655 v -0.33796 c 0,-1.75995 1.4166,-3.17707 3.176551,-3.17707 z m 18.177185,8.76019 c 3.233351,0.0786 6.245042,2.33559 6.318478,5.81825 l -0.01241,0.008 0.120403,13.19351 h -5.47511 v -9.65316 l -0.0011,5.3e-4 c 0.0013,-0.0221 5.3e-5,-0.0426 0.0011,-0.0646 V 235.26 c -0.09709,-2.29296 -1.54478,-3.56609 -3.205487,-3.57911 -1.791088,-0.0141 -3.041507,0.62316 -3.486092,3.5171 v 10.43812 h -5.67769 v -18.65519 h 5.67769 v 2.24327 c 1.537076,-1.95943 3.682953,-2.79349 5.740217,-2.7435 z m -20.880379,0.50023 h 5.67769 v 18.65519 h -5.67769 z"
       id="rect1661-8"
       inkscape:connector-curvature="0" />
    <rect
       style="opacity:0.20499998;fill:none;fill-opacity:1;fill-rule:nonzero;stroke:#ff00ed;stroke-width:0.38323691;stroke-linejoin:round;stroke-miterlimit:4;stroke-dasharray:none;stroke-dashoffset:0;stroke-opacity:1;paint-order:normal"
       id="rect862-5"
       width="40.157867"
       height="39.848961"
       x="-105.27477"
       y="251.14636"
       ry="3.6756809" />
    <path
       style="opacity:1;fill:url(#linearGradient1719);fill-opacity:1;fill-rule:nonzero;stroke:none;stroke-width:0.38323691;stroke-linejoin:round;stroke-miterlimit:4;stroke-dasharray:none;stroke-dashoffset:0;stroke-opacity:1;paint-order:normal"
       d="m 75.010408,255.90899 c -2.036327,0 -3.675744,1.63942 -3.675744,3.67574 v 32.49724 c 0,2.03633 1.639417,3.67575 3.675744,3.67575 h 32.806262 c 2.03633,0 3.67575,-1.63942 3.67575,-3.67575 v -32.49724 c 0,-2.03632 -1.63942,-3.67574 -3.67575,-3.67574 z m 25.840802,16.22795 c 2.63813,0.001 5.38034,1.31367 6.56962,3.16725 l -3.175,2.24895 c -1.90402,-3.69347 -7.66594,-0.83251 -4.23333,1.85209 l 5.82083,2.64583 c 5.29247,3.45213 3.37482,12.93822 -5.49423,11.22929 -2.152675,-0.35026 -5.893622,-2.33818 -6.808892,-4.35012 l 3.571875,-1.85209 c 4.351767,6.07236 10.466227,0.52056 5.688537,-1.98437 l -5.556245,-2.38125 c -2.124967,-0.81355 -4.114863,-5.6656 -0.661459,-8.99583 1.150147,-1.10913 2.695414,-1.58055 4.278294,-1.57975 z m -13.935585,0.12454 h 4.365625 l -0.132292,15.875 c -0.01507,6.56405 -10.13618,6.8136 -12.832291,1.45521 l 3.120223,-2.12494 c 1.860111,2.81252 4.536567,2.76407 5.478735,0.80202 z"
       id="rect862-5-2"
       inkscape:connector-curvature="0" />
    <path
       style="opacity:1;fill:#ffe200;fill-opacity:1;fill-rule:nonzero;stroke:none;stroke-width:0.38323691;stroke-linejoin:round;stroke-miterlimit:4;stroke-dasharray:none;stroke-dashoffset:0;stroke-opacity:1;paint-order:normal"
       d="m 71.350643,277.92061 v 14.19087 c 0,2.03633 1.639414,3.67574 3.675745,3.67574 h 32.806262 c 2.03633,0 3.67575,-1.63941 3.67575,-3.67574 v -14.19087 c -4.23557,3.08545 -7.83274,-2.4705 -12.52947,0 0.07472,0.4797 0.392326,1.00012 1.04955,1.51412 l 5.82083,2.64583 c 5.29247,3.45213 3.37482,12.93822 -5.49424,11.22929 -2.152666,-0.35026 -5.893612,-2.33818 -6.808883,-4.35012 l 3.571875,-1.85208 c 4.351768,6.07236 10.466228,0.52055 5.688538,-1.98438 l -5.556246,-2.38125 c -1.312828,-0.50262 -2.572105,-2.54707 -2.530078,-4.82141 -1.15669,0.54102 -2.313382,0.9329 -3.470071,0 l -0.08527,10.24537 c -0.01511,6.56405 -10.136182,6.8136 -12.832292,1.45521 l 3.120224,-2.12494 c 1.860111,2.81252 4.536564,2.76407 5.478735,0.80202 v -10.37766 c -6.019795,-2.08976 -12.870064,3.33742 -15.580961,0 z"
       id="rect862-5-2-6"
       inkscape:connector-curvature="0"
       sodipodi:nodetypes="csssscccccccccccccccccc" />
    <path
       style="opacity:1;fill:url(#linearGradient1769);fill-opacity:1;fill-rule:nonzero;stroke:none;stroke-width:0.38323691;stroke-linejoin:round;stroke-miterlimit:4;stroke-dasharray:none;stroke-dashoffset:0;stroke-opacity:1;paint-order:normal"
       d="m 71.254221,278.19702 v 14.19087 c 0,2.03633 1.639414,3.67574 3.675745,3.67574 h 32.806264 c 2.03633,0 3.67575,-1.63941 3.67575,-3.67574 v -14.19087 c -4.23558,3.08545 -7.83275,-2.4705 -12.529472,0 0.07472,0.4797 0.392327,1.00012 1.049549,1.51412 l 5.820833,2.64583 c 5.29247,3.45213 3.37482,12.93822 -5.49424,11.22929 -2.152668,-0.35026 -5.893614,-2.33818 -6.808885,-4.35012 l 3.571875,-1.85208 c 4.35177,6.07236 10.46623,0.52055 5.68854,-1.98438 l -5.556248,-2.38125 c -1.312828,-0.50262 -2.572105,-2.54707 -2.530078,-4.82141 -1.15669,0.54102 -2.313382,0.9329 -3.470071,0 l -0.08527,10.24537 c -0.01511,6.56405 -10.136182,6.8136 -12.832291,1.45521 l 3.120223,-2.12494 c 1.860111,2.81252 4.536564,2.76407 5.478735,0.80202 v -10.37766 c -6.019795,-2.08976 -12.870064,3.33742 -15.580961,0 z"
       id="rect862-5-2-6-4"
       inkscape:connector-curvature="0"
       sodipodi:nodetypes="csssscccccccccccccccccc" />
    <path
       inkscape:connector-curvature="0"
       style="opacity:1;fill:none;fill-opacity:1;fill-rule:nonzero;stroke:#ff00ea;stroke-width:0.38323691;stroke-linejoin:round;stroke-miterlimit:4;stroke-dasharray:none;stroke-dashoffset:0;stroke-opacity:1;paint-order:normal"
       d="m 74.800622,255.88627 c -2.036327,0 -3.675744,1.63942 -3.675744,3.67574 v 32.49724 c 0,2.03633 1.639417,3.67575 3.675744,3.67575 h 32.806268 c 2.03633,0 3.67574,-1.63942 3.67574,-3.67575 v -32.49724 c 0,-2.03632 -1.63941,-3.67574 -3.67574,-3.67574 z m 25.840798,16.22795 c 2.63813,0.001 5.38035,1.31367 6.56963,3.16725 l -3.175,2.24896 c -1.90402,-3.69348 -7.665945,-0.83252 -4.233335,1.85208 l 5.820835,2.64583 c 5.29247,3.45213 3.37482,12.93822 -5.49424,11.22929 -2.15267,-0.35026 -5.893617,-2.33818 -6.808887,-4.35012 l 3.571875,-1.85209 c 4.351772,6.07236 10.466232,0.52056 5.688542,-1.98437 l -5.55625,-2.38125 c -2.124967,-0.81355 -4.114862,-5.6656 -0.661458,-8.99583 1.150146,-1.10913 2.695413,-1.58055 4.278288,-1.57975 z m -13.93558,0.12454 h 4.365625 l -0.132292,15.875 c -0.01507,6.56405 -10.136181,6.8136 -12.832293,1.45521 l 3.120225,-2.12494 c 1.860112,2.81252 4.536567,2.76407 5.478735,0.80202 z"
       id="rect862-5-2-7" />
    <path
       inkscape:connector-curvature="0"
       style="opacity:1;fill:none;fill-opacity:1;fill-rule:nonzero;stroke:#00ecff;stroke-width:0.38323691;stroke-linejoin:round;stroke-miterlimit:4;stroke-dasharray:none;stroke-dashoffset:0;stroke-opacity:1;paint-order:normal"
       d="m 74.410395,255.58958 c -2.036327,0 -3.675744,1.63942 -3.675744,3.67574 v 32.49724 c 0,2.03633 1.639417,3.67575 3.675744,3.67575 h 32.806265 c 2.03633,0 3.67575,-1.63942 3.67575,-3.67575 v -32.49724 c 0,-2.03632 -1.63942,-3.67574 -3.67575,-3.67574 z m 25.840795,16.22795 c 2.63814,0.001 5.38035,1.31367 6.56963,3.16725 l -3.175,2.24896 c -1.90402,-3.69348 -7.665943,-0.83252 -4.233333,1.85208 l 5.820833,2.64583 c 5.29247,3.45213 3.37482,12.93822 -5.494237,11.22929 -2.152671,-0.35026 -5.893618,-2.33818 -6.808888,-4.35012 l 3.571875,-1.85209 c 4.35177,6.07236 10.46623,0.52056 5.68854,-1.98437 l -5.556248,-2.38125 c -2.124967,-0.81355 -4.114862,-5.6656 -0.661458,-8.99583 1.150146,-1.10913 2.695413,-1.58055 4.278286,-1.57975 z m -13.935578,0.12454 h 4.365625 l -0.132292,15.875 c -0.01507,6.56405 -10.136181,6.8136 -12.832292,1.45521 l 3.120224,-2.12494 c 1.860112,2.81252 4.536567,2.76407 5.478735,0.80202 z"
       id="rect862-5-2-7-4" />
    <path
       style="opacity:1;fill:url(#linearGradient929);fill-opacity:1;fill-rule:nonzero;stroke:none;stroke-width:1.4484545;stroke-linejoin:round;stroke-miterlimit:4;stroke-dasharray:none;stroke-dashoffset:0;stroke-opacity:1;paint-order:normal"
       d="M 17.90625 4.2382812 C 10.209895 4.2382812 4.0136719 10.434505 4.0136719 18.130859 L 4.0136719 140.95703 C 4.0136719 148.65339 10.209895 154.84961 17.90625 154.84961 L 141.90039 154.84961 C 149.59675 154.84961 155.79102 148.65339 155.79102 140.95703 L 155.79102 18.130859 C 155.79102 10.434505 149.59675 4.2382812 141.90039 4.2382812 L 17.90625 4.2382812 z M 108.24023 16.953125 L 108.24023 16.982422 C 110.50004 16.986456 112.56889 17.476391 114.33984 18.511719 C 122.05479 22.943709 123.80673 36.78588 119.86719 54.185547 C 136.93856 59.410918 148.07227 67.837176 148.07227 76.728516 C 148.07227 85.592497 136.99319 94.018769 120.03125 99.244141 C 123.99816 116.58909 122.27353 130.4059 114.58594 134.83789 C 112.78031 135.87749 110.70237 136.36914 108.4043 136.36914 C 100.88086 136.36914 91.030564 131.06145 81.072266 121.81445 C 71.113966 131.11616 61.265627 136.47852 53.742188 136.47852 C 51.444118 136.47852 49.366158 135.98687 47.587891 134.94727 C 39.872944 130.51528 38.121 116.67115 42.060547 99.271484 C 24.989176 94.046113 13.855469 85.619855 13.855469 76.728516 C 13.855469 67.864534 24.934517 59.46562 41.951172 54.212891 C 37.984267 36.86794 39.708896 23.053084 47.396484 18.621094 C 49.20211 17.581491 51.280056 17.089844 53.578125 17.089844 L 53.578125 17.0625 C 61.101566 17.0625 70.949903 22.368242 80.908203 31.615234 C 90.866503 22.313526 100.71679 16.953125 108.24023 16.953125 z M 108.21289 23.054688 C 102.52296 23.06882 94.164561 27.608222 85.259766 35.884766 C 89.117239 39.906387 92.9473 44.501276 96.640625 49.5625 C 102.79617 50.219091 108.64956 51.231739 114.01172 52.544922 C 114.61359 49.781767 115.10727 47.073602 115.4082 44.501953 C 116.66667 34.05121 115.05271 25.924937 111.33203 23.791016 C 110.48393 23.32593 109.47136 23.080078 108.21289 23.080078 L 108.21289 23.054688 z M 53.578125 23.162109 L 53.578125 23.189453 C 52.319659 23.189453 51.25238 23.407947 50.431641 23.900391 C 46.738315 26.06167 45.151676 34.187929 46.4375 44.638672 C 46.765796 47.182963 47.232095 49.836469 47.861328 52.572266 C 53.22349 51.231725 59.076865 50.219091 65.259766 49.5625 C 68.898375 44.501276 72.728478 39.93373 76.558594 35.912109 C 67.639897 27.677361 59.241224 23.162109 53.578125 23.162109 z M 80.880859 40.207031 C 78.363926 42.833396 75.819639 45.760055 73.357422 48.960938 C 75.846997 48.824148 78.391242 48.769531 80.962891 48.769531 C 83.507182 48.769531 86.024111 48.851506 88.486328 48.960938 C 85.969395 45.760055 83.42515 42.833396 80.880859 40.207031 z M 80.962891 54.898438 C 76.80448 54.898438 72.673993 55.08966 68.597656 55.445312 C 66.326945 58.700911 64.137828 62.203159 62.003906 65.896484 C 59.952059 69.480378 58.037991 73.144579 56.341797 76.810547 C 58.065349 80.476514 59.952045 84.115325 62.03125 87.699219 C 64.165171 91.365186 66.381633 94.840105 68.652344 98.095703 C 72.701323 98.423999 76.831838 98.615234 80.962891 98.615234 C 85.121302 98.615234 89.253741 98.424013 93.330078 98.068359 C 95.600789 94.812761 97.787954 91.310512 99.921875 87.617188 C 101.97372 84.033294 103.86239 80.367139 105.58594 76.701172 C 103.86239 73.035204 101.97374 69.398347 99.894531 65.814453 C 97.76061 62.148486 95.546102 58.673567 93.275391 55.417969 C 89.226412 55.089673 85.093944 54.898437 80.962891 54.898438 z M 60.636719 56.320312 C 56.72453 56.89483 52.949128 57.634325 49.365234 58.482422 C 50.404837 62.038958 51.663295 65.705126 53.140625 69.371094 C 54.262302 67.182456 55.438799 64.993324 56.697266 62.804688 C 57.955732 60.588692 59.296178 58.426876 60.636719 56.320312 z M 101.23633 56.320312 C 102.57687 58.399518 103.91731 60.534019 105.17578 62.722656 C 106.46161 64.911294 107.63809 67.098472 108.75977 69.287109 C 110.18238 65.6485 111.44089 62.0116 112.45312 58.482422 C 108.86924 57.606967 105.12116 56.89483 101.23633 56.320312 z M 118.36133 60.095703 C 116.82928 65.430507 114.806 70.983371 112.28906 76.673828 C 114.83335 82.391643 116.88396 87.973776 118.44336 93.335938 C 121.09708 92.487841 123.6687 91.58451 126.02148 90.572266 C 135.7062 86.468571 141.97264 81.023716 142 76.728516 C 142 72.433315 135.73355 67.017772 126.04883 62.886719 C 123.64133 61.874474 121.06977 60.9438 118.36133 60.095703 z M 43.455078 60.123047 C 40.801355 60.971144 38.229738 61.874474 35.876953 62.886719 C 26.192233 66.990414 19.927734 72.433315 19.927734 76.728516 C 19.927734 81.023716 26.192233 86.441213 35.876953 90.572266 C 38.257096 91.58451 40.828671 92.515184 43.537109 93.363281 C 45.069156 88.028478 47.094395 82.47366 49.611328 76.783203 C 47.067037 71.065388 45.014482 65.485208 43.455078 60.123047 z M 80.935547 64.226562 A 12.502591 12.502591 0 0 1 93.439453 76.728516 A 12.502591 12.502591 0 0 1 80.935547 89.232422 A 12.502591 12.502591 0 0 1 68.433594 76.728516 A 12.502591 12.502591 0 0 1 80.935547 64.226562 z M 108.75977 84.060547 C 107.63809 86.249184 106.46159 88.46566 105.20312 90.654297 C 103.94467 92.870292 102.60421 95.032108 101.26367 97.138672 C 105.17586 96.564155 108.95126 95.824674 112.53516 94.949219 C 111.49555 91.392683 110.2371 87.726514 108.75977 84.060547 z M 53.140625 84.169922 C 51.718011 87.808531 50.45951 91.447386 49.447266 94.976562 C 53.031159 95.852017 56.779232 96.564155 60.664062 97.138672 C 59.323523 95.059466 58.010434 92.924965 56.724609 90.736328 C 55.438785 88.547691 54.262302 86.358559 53.140625 84.169922 z M 114.06641 100.85938 C 108.70424 102.19991 102.85087 103.21255 96.667969 103.86914 C 93.029359 108.93036 89.199256 113.49791 85.369141 117.51953 C 94.287838 125.75428 102.68651 130.26953 108.34961 130.26953 C 109.60808 130.26953 110.67535 130.05104 111.49609 129.55859 C 115.18942 127.39731 116.77606 119.27106 115.49023 108.82031 C 115.1893 106.27602 114.69564 103.62252 114.06641 100.85938 z M 47.916016 100.91406 C 47.31414 103.67722 46.820469 106.38538 46.519531 108.95703 C 45.261065 119.40777 46.87502 127.53405 50.595703 129.66797 C 51.416442 130.13305 52.456392 130.37889 53.6875 130.40625 C 59.377957 130.40625 67.749272 125.86368 76.667969 117.57422 C 72.810495 113.5526 68.980435 108.95771 65.287109 103.89648 C 59.131567 103.23989 53.278177 102.22724 47.916016 100.91406 z M 73.412109 104.49805 C 75.929042 107.69893 78.473287 110.62559 81.017578 113.25195 C 83.534511 110.62559 86.078799 107.69893 88.541016 104.49805 C 86.051441 104.63484 83.507196 104.68945 80.935547 104.68945 C 78.391256 104.68945 75.874326 104.60748 73.412109 104.49805 z "
       id="rect862-5-6"
       transform="matrix(0.26458333,0,0,0.26458333,0,255)" />
    <g
       id="g896"
       transform="matrix(0.07238462,0,0,0.07238462,-9.05227,253.83929)">
      <polygon
         id="polygon890"
         points=""
         style="fill:#61dafb" />
      <polygon
         id="polygon894"
         points=""
         style="fill:#61dafb" />
    </g>
    <path
       style="opacity:1;fill:#009cff;fill-opacity:1;fill-rule:nonzero;stroke:none;stroke-width:0.38323691;stroke-linejoin:round;stroke-miterlimit:4;stroke-dasharray:none;stroke-dashoffset:0;stroke-opacity:1;paint-order:normal"
       d="m 1.2200805,275.83335 v 16.6455 c 0,2.03633 1.6394173,3.67574 3.6757445,3.67574 h 32.806783 c 2.036329,0 3.675227,-1.63941 3.675227,-3.67574 v -16.6455 c -0.605359,0.29161 -1.126466,0.87809 -2.066023,0 -0.273016,2.21638 -3.130047,4.29547 -7.395414,5.60948 1.049579,4.58918 0.593268,8.24488 -1.440741,9.41751 -0.477739,0.27506 -1.027527,0.40515 -1.635558,0.40515 -1.990577,0 -4.596801,-1.40432 -7.231599,-3.85093 -2.634801,2.46108 -5.240507,3.87986 -7.231083,3.87986 -0.608031,0 -1.157826,-0.13008 -1.628325,-0.40514 -2.041247,-1.17263 -2.504782,-4.83556 -1.462443,-9.43922 -4.2934066,-1.31416 -7.1650416,-3.39381 -7.4388219,-5.61671 -1.2514122,0.62583 -1.878117,0.21048 -2.6277466,0 z m 4.2638222,0 c 0.2904882,1.07084 1.8593948,2.33035 4.1666708,3.31453 0.6297455,0.26783 1.3101415,0.51407 2.0267495,0.73845 0.375207,-1.30652 0.867562,-2.66441 1.46606,-4.05298 -2.55316,0 -4.6589997,-1.78928 -7.6594803,0 z m 9.7389403,0 c 0.413444,0.85937 0.859463,1.71277 1.347721,2.55437 0.5646,0.96996 1.151039,1.88936 1.751831,2.75074 1.071293,0.0869 2.164158,0.13746 3.257166,0.13746 1.100246,0 2.193622,-0.0506 3.272151,-0.1447 0.600794,-0.86137 1.17948,-1.78801 1.74408,-2.76521 0.476501,-0.83229 0.917419,-1.68158 1.327052,-2.53266 -1.22069,0.60075 -2.191936,0.45319 -3.061313,0 -0.177983,1.6827 -1.597117,2.95981 -3.289205,2.96003 -1.690704,-0.002 -3.107751,-1.2787 -3.285588,-2.96003 -1.020999,8e-4 -1.690163,0.88109 -3.063895,0 z m 14.799612,0 c 0.599723,1.38573 1.094404,2.74111 1.473814,4.04575 0.70213,-0.2244 1.382538,-0.46339 2.005044,-0.73122 2.307535,-0.97777 3.877271,-2.24251 4.172871,-3.31453 -3.784206,-1.7256 -5.135549,-0.0382 -7.651729,0 z m -1.088305,1.59164 c -0.296778,0.57908 -0.608057,1.16551 -0.941028,1.74459 -0.332965,0.58631 -0.687628,1.1583 -1.042312,1.71566 1.0351,-0.152 2.034005,-0.34766 2.982245,-0.57929 -0.275063,-0.941 -0.608028,-1.91101 -0.998905,-2.88096 z m -14.715897,0.0289 c -0.3764,0.96271 -0.709378,1.92549 -0.977201,2.85926 0.948238,0.23163 1.939916,0.42006 2.967777,0.57206 -0.354684,-0.55012 -0.702105,-1.11487 -1.042313,-1.69395 -0.340207,-0.57908 -0.651486,-1.15829 -0.948263,-1.73737 z m 16.119945,4.41576 c -1.418738,0.35468 -2.967444,0.62261 -4.603337,0.79633 -0.962714,1.33912 -1.976095,2.54761 -2.98948,3.61167 2.35974,2.17878 4.581886,3.37343 6.08025,3.37343 0.33297,0 0.615352,-0.0578 0.832506,-0.1881 0.977194,-0.57184 1.396992,-2.72191 1.056783,-5.487 -0.07962,-0.67318 -0.210238,-1.37525 -0.376722,-2.10633 z m -17.502289,0.0145 c -0.159248,0.73109 -0.289864,1.44761 -0.369487,2.12803 -0.332969,2.76509 0.09406,4.91517 1.078487,5.47977 0.217154,0.12305 0.492307,0.18811 0.818038,0.19534 1.5056,0 3.720511,-1.20188 6.080249,-3.39514 -1.020623,-1.06405 -2.033993,-2.27978 -3.011186,-3.6189 -1.628654,-0.17372 -3.177365,-0.44165 -4.596101,-0.7891 z m 6.745841,0.94826 c 0.665938,0.8469 1.339103,1.62125 2.01228,2.31614 0.665939,-0.69489 1.339115,-1.46924 1.990576,-2.31614 -0.6587,0.0362 -1.331864,0.0507 -2.01228,0.0507 -0.673177,0 -1.339115,-0.0217 -1.990576,-0.0507 z"
       id="rect862-5-6-1"
       inkscape:connector-curvature="0"
       sodipodi:nodetypes="cssssccccscsccccccccccccscccccccccccccccccccccccccscccccccccccccsc" />
    <path
       style="opacity:1;fill:url(#linearGradient979);fill-opacity:1;fill-rule:nonzero;stroke:none;stroke-width:0.38323691;stroke-linejoin:round;stroke-miterlimit:4;stroke-dasharray:none;stroke-dashoffset:0;stroke-opacity:1;paint-order:normal"
       d="m 1.0895403,276.17607 v 16.6455 c 0,2.03633 1.6394179,3.67574 3.6757449,3.67574 H 37.572068 c 2.036329,0 3.675227,-1.63941 3.675227,-3.67574 v -16.6455 c -0.605359,0.29161 -1.126467,0.87809 -2.066023,0 -0.273016,2.21638 -3.130048,4.29547 -7.395414,5.60948 1.049578,4.58918 0.593267,8.24488 -1.440741,9.41751 -0.477739,0.27506 -1.027528,0.40515 -1.635559,0.40515 -1.990576,0 -4.5968,-1.40432 -7.231598,-3.85093 -2.634801,2.46108 -5.240507,3.87986 -7.231083,3.87986 -0.608031,0 -1.157826,-0.13008 -1.628325,-0.40514 -2.041247,-1.17263 -2.504782,-4.83556 -1.462444,-9.43922 -4.2934058,-1.31416 -7.1650408,-3.39381 -7.4388208,-5.61671 -1.2514119,0.62583 -1.8781169,0.21048 -2.6277469,0 z m 4.2638229,0 c 0.290488,1.07084 1.859395,2.33035 4.16667,3.31453 0.6297458,0.26783 1.3101418,0.51407 2.0267498,0.73845 0.375207,-1.30652 0.867562,-2.66441 1.46606,-4.05298 -2.55316,0 -4.6589998,-1.78928 -7.6594798,0 z m 9.7389398,0 c 0.413444,0.85937 0.859463,1.71277 1.347721,2.55437 0.5646,0.96996 1.151039,1.88936 1.751831,2.75074 1.071293,0.0869 2.164158,0.13746 3.257166,0.13746 1.100246,0 2.193622,-0.0506 3.272151,-0.1447 0.600794,-0.86137 1.17948,-1.78801 1.74408,-2.76521 0.476501,-0.83229 0.917419,-1.68158 1.327051,-2.53266 -1.220689,0.60075 -2.191935,0.45319 -3.061312,0 -0.177983,1.6827 -1.597117,2.95981 -3.289205,2.96003 -1.690704,-0.002 -3.107751,-1.2787 -3.285588,-2.96003 -1.020999,7.9e-4 -1.690163,0.88109 -3.063895,0 z m 14.799612,0 c 0.599723,1.38573 1.094404,2.74111 1.473814,4.04575 0.70213,-0.2244 1.382538,-0.46339 2.005044,-0.73122 2.307534,-0.97777 3.87727,-2.24251 4.172871,-3.31453 -3.784206,-1.7256 -5.135549,-0.0382 -7.651729,0 z m -1.088305,1.59164 c -0.296778,0.57908 -0.608058,1.16551 -0.941028,1.74459 -0.332965,0.58631 -0.687628,1.1583 -1.042312,1.71566 1.035099,-0.152 2.034005,-0.34766 2.982245,-0.57929 -0.275064,-0.941 -0.608028,-1.91101 -0.998905,-2.88096 z m -14.715897,0.0289 c -0.3764,0.96271 -0.709378,1.92549 -0.977201,2.85926 0.948238,0.23163 1.939916,0.42006 2.967777,0.57206 -0.354684,-0.55012 -0.702105,-1.11487 -1.042313,-1.69395 -0.340207,-0.57908 -0.651486,-1.15829 -0.948263,-1.73737 z m 16.119945,4.41576 c -1.418738,0.35468 -2.967444,0.62261 -4.603337,0.79633 -0.962714,1.33912 -1.976095,2.54761 -2.98948,3.61167 2.35974,2.17878 4.581886,3.37343 6.08025,3.37343 0.33297,0 0.615352,-0.0578 0.832506,-0.1881 0.977194,-0.57184 1.396992,-2.72191 1.056783,-5.487 -0.07962,-0.67318 -0.210238,-1.37525 -0.376722,-2.10633 z m -17.502289,0.0145 c -0.159248,0.73109 -0.289864,1.44761 -0.369487,2.12803 -0.332969,2.76509 0.09406,4.91517 1.078487,5.47977 0.217154,0.12305 0.492307,0.18811 0.818038,0.19534 1.5056,0 3.720511,-1.20188 6.080249,-3.39514 -1.020623,-1.06404 -2.033993,-2.27977 -3.011186,-3.61889 -1.628654,-0.17372 -3.177365,-0.44165 -4.596101,-0.7891 z m 6.745841,0.94826 c 0.665938,0.8469 1.339103,1.62125 2.01228,2.31614 0.665939,-0.69489 1.339115,-1.46924 1.990576,-2.31614 -0.6587,0.0362 -1.331864,0.0507 -2.01228,0.0507 -0.673177,0 -1.339115,-0.0217 -1.990576,-0.0507 z"
       id="rect862-5-6-1-5"
       inkscape:connector-curvature="0"
       sodipodi:nodetypes="cssssccccscsccccccccccccscccccccccccccccccccccccccscccccccccccccsc" />
    <path
       id="path981"
       d="m 4.8312395,256.21492 c -2.036327,0 -3.6757445,1.63941 -3.6757445,3.67574 v 32.49776 c 0,2.03633 1.6394175,3.67574 3.6757445,3.67574 H 37.638022 c 2.036329,0 3.67523,-1.63941 3.67523,-3.67574 v -32.49776 c 0,-2.03633 -1.638901,-3.67574 -3.67523,-3.67574 z m 23.9008655,3.36413 v 0.008 c 0.597908,0.001 1.145292,0.1307 1.613855,0.40463 2.041248,1.17263 2.504782,4.83504 1.462445,9.4387 4.5168,1.38255 7.462594,3.61199 7.462594,5.96449 0,2.34527 -2.93134,4.57472 -7.419186,5.95726 1.049578,4.58919 0.59327,8.24489 -1.440739,9.41752 -0.477739,0.27506 -1.027528,0.40514 -1.635559,0.40514 -1.990576,0 -4.5968,-1.40433 -7.2316,-3.85093 -2.6348,2.46108 -5.240507,3.87987 -7.231083,3.87987 -0.608031,0 -1.157825,-0.13008 -1.628325,-0.40514 -2.041246,-1.17263 -2.504781,-4.83556 -1.462443,-9.43922 -4.5168005,-1.38255 -7.4625935,-3.61199 -7.4625935,-5.9645 0,-2.34526 2.931331,-4.56747 7.4336555,-5.95725 -1.049577,-4.58919 -0.593269,-8.24437 1.440738,-9.417 0.477739,-0.27506 1.027529,-0.40514 1.63556,-0.40514 v -0.007 c 1.990577,0 4.596282,1.40381 7.231083,3.85041 2.6348,-2.46107 5.241021,-3.87935 7.231598,-3.87935 z m -0.0072,1.61437 c -1.505461,0.004 -3.716954,1.20479 -6.073014,3.39463 1.020623,1.06405 2.033993,2.27978 3.011185,3.6189 1.628655,0.17372 3.177364,0.44165 4.596102,0.7891 0.159245,-0.73109 0.289865,-1.44762 0.369486,-2.12804 0.33297,-2.76509 -0.09406,-4.91517 -1.078487,-5.47977 -0.224393,-0.12305 -0.492302,-0.1881 -0.825272,-0.1881 z m -14.455448,0.0284 v 0.007 c -0.33297,0 -0.615354,0.0578 -0.832508,0.1881 -0.977192,0.57184 -1.39699,2.72191 -1.056783,5.48701 0.08686,0.67317 0.210237,1.37525 0.376721,2.09909 1.418739,-0.35468 2.967444,-0.62261 4.603337,-0.79633 0.962715,-1.33912 1.976097,-2.54761 2.989482,-3.61167 -2.359739,-2.17877 -4.581888,-3.37343 -6.080249,-3.37343 z m 7.223848,4.5098 c -0.665939,0.69489 -1.339115,1.46924 -1.990576,2.31614 0.6587,-0.0362 1.331865,-0.0507 2.01228,-0.0507 0.673177,0 1.339115,0.0217 1.990576,0.0507 -0.665938,-0.8469 -1.339103,-1.62125 -2.01228,-2.31614 z m 0.0217,3.8871 c -1.100246,0 -2.193104,0.0506 -3.271635,0.14469 -0.600792,0.86138 -1.179996,1.78802 -1.744596,2.76521 -0.542885,0.94824 -1.049315,1.91772 -1.4981,2.88768 0.456023,0.96995 0.955211,1.93272 1.505334,2.88096 0.5646,0.96995 1.151039,1.88936 1.751832,2.75074 1.071292,0.0869 2.164157,0.13746 3.257165,0.13746 1.100246,0 2.193621,-0.0506 3.272152,-0.1447 0.600792,-0.86138 1.179479,-1.78801 1.744079,-2.7652 0.542884,-0.94824 1.042595,-1.91825 1.498617,-2.8882 -0.456022,-0.96995 -0.955728,-1.93221 -1.505852,-2.88044 -0.564599,-0.96996 -1.150521,-1.88936 -1.751314,-2.75074 -1.071292,-0.0869 -2.164674,-0.13746 -3.257682,-0.13746 z m -5.377966,0.3762 c -1.0351,0.15201 -2.034009,0.34767 -2.982247,0.57206 0.275061,0.941 0.608028,1.91101 0.998905,2.88096 0.296777,-0.57907 0.608059,-1.15828 0.941028,-1.73736 0.332969,-0.58631 0.687629,-1.15829 1.042314,-1.71566 z m 10.74198,0 c 0.354685,0.55013 0.709343,1.11488 1.042313,1.69396 0.340209,0.57907 0.651486,1.15777 0.948264,1.73684 0.376399,-0.96271 0.70938,-1.92498 0.977199,-2.85874 -0.948235,-0.23163 -1.939915,-0.42005 -2.967776,-0.57206 z m 4.53099,0.99891 c -0.405355,1.4115 -0.940681,2.8807 -1.606622,4.3863 0.673177,1.51283 1.215734,2.98977 1.628325,4.40851 0.70213,-0.22439 1.382538,-0.4634 2.005045,-0.73122 2.562415,-1.08577 4.220411,-2.52639 4.22765,-3.66283 0,-1.13643 -1.657999,-2.5693 -4.220414,-3.6623 -0.636984,-0.26783 -1.317376,-0.51407 -2.033984,-0.73846 z m -19.818946,0.007 c -0.702131,0.2244 -1.382538,0.4634 -2.0050464,0.73123 -2.5624151,1.08577 -4.2198971,2.52587 -4.2198971,3.6623 0,1.13644 1.657482,2.56982 4.2198971,3.66283 0.6297474,0.26782 1.3101434,0.51406 2.0267504,0.73846 0.405354,-1.4115 0.941199,-2.88122 1.607137,-4.38682 -0.673177,-1.51283 -1.216249,-2.98926 -1.628841,-4.408 z m 9.916707,1.08573 a 3.3079772,3.3079772 0 0 1 3.308325,3.3078 3.3079772,3.3079772 0 0 1 -3.308325,3.30833 3.3079772,3.3079772 0 0 1 -3.307808,-3.30833 3.3079772,3.3079772 0 0 1 3.307808,-3.3078 z m 7.361826,5.24774 c -0.296778,0.57907 -0.60806,1.16552 -0.94103,1.74459 -0.332965,0.58632 -0.687629,1.1583 -1.042313,1.71566 1.0351,-0.15201 2.034008,-0.34766 2.982248,-0.57929 -0.275063,-0.941 -0.608028,-1.91101 -0.998905,-2.88096 z m -14.715899,0.0289 c -0.3764,0.96271 -0.709378,1.92549 -0.977201,2.85925 0.948238,0.23163 1.939916,0.42005 2.967777,0.57206 -0.354684,-0.55012 -0.702105,-1.11487 -1.042313,-1.69395 -0.340208,-0.57908 -0.651486,-1.15829 -0.948263,-1.73736 z m 16.119947,4.41575 c -1.41874,0.35468 -2.967445,0.62261 -4.603337,0.79633 -0.962716,1.33912 -1.976097,2.54761 -2.989482,3.61167 2.359739,2.17877 4.581888,3.37343 6.080249,3.37343 0.332971,0 0.615352,-0.0578 0.832507,-0.1881 0.977193,-0.57184 1.396992,-2.72191 1.056782,-5.487 -0.07962,-0.67318 -0.210235,-1.37525 -0.376719,-2.10633 z m -17.502291,0.0145 c -0.159247,0.73108 -0.289864,1.44762 -0.369487,2.12803 -0.332969,2.76509 0.09406,4.91517 1.078487,5.47977 0.217154,0.12305 0.492308,0.1881 0.818038,0.19534 1.5056,0 3.720511,-1.20189 6.080249,-3.39514 -1.020623,-1.06406 -2.033993,-2.27979 -3.011186,-3.6189 -1.628653,-0.17373 -3.177363,-0.44166 -4.596101,-0.7891 z m 6.745841,0.94826 c 0.665939,0.8469 1.339103,1.62125 2.01228,2.31614 0.665939,-0.69489 1.339115,-1.46924 1.990577,-2.31614 -0.6587,0.0362 -1.331865,0.0506 -2.012281,0.0506 -0.673177,0 -1.339114,-0.0217 -1.990576,-0.0506 z"
       style="opacity:1;fill:none;fill-opacity:1;fill-rule:nonzero;stroke:#eb08f7;stroke-width:0.38299999;stroke-linejoin:round;stroke-miterlimit:4;stroke-dasharray:none;stroke-dashoffset:0;stroke-opacity:1;paint-order:normal"
       inkscape:connector-curvature="0" />
    <path
       id="path981-2"
       d="m 4.4572531,255.93435 c -2.036327,0 -3.67574505,1.63941 -3.67574505,3.67574 v 32.49776 c 0,2.03633 1.63941805,3.67574 3.67574505,3.67574 H 37.264037 c 2.036329,0 3.675229,-1.63941 3.675229,-3.67574 v -32.49776 c 0,-2.03633 -1.6389,-3.67574 -3.675229,-3.67574 z m 23.9008669,3.36413 v 0.008 c 0.597908,10e-4 1.145291,0.1307 1.613855,0.40463 2.041247,1.17263 2.504781,4.83504 1.462445,9.4387 4.5168,1.38255 7.462594,3.61199 7.462594,5.96449 0,2.34527 -2.93134,4.57472 -7.419187,5.95726 1.049578,4.58919 0.59327,8.24489 -1.440738,9.41752 -0.47774,0.27506 -1.027528,0.40514 -1.635559,0.40514 -1.990577,0 -4.596801,-1.40433 -7.231601,-3.85093 -2.6348,2.46108 -5.240507,3.87987 -7.231083,3.87987 -0.608031,0 -1.157825,-0.13008 -1.628325,-0.40514 -2.041246,-1.17263 -2.5047823,-4.83556 -1.462443,-9.43922 -4.5168009,-1.38255 -7.4625939,-3.61199 -7.4625939,-5.9645 0,-2.34526 2.931331,-4.56747 7.4336559,-5.95725 -1.0495783,-4.58919 -0.593269,-8.24437 1.440738,-9.417 0.477739,-0.27506 1.027529,-0.40514 1.63556,-0.40514 v -0.007 c 1.990577,0 4.596282,1.40381 7.231083,3.85041 2.6348,-2.46107 5.241021,-3.87935 7.231599,-3.87935 z m -0.0072,1.61437 c -1.505462,0.004 -3.716955,1.20479 -6.073015,3.39463 1.020623,1.06405 2.033993,2.27978 3.011185,3.6189 1.628655,0.17372 3.177363,0.44165 4.596101,0.7891 0.159245,-0.73109 0.289867,-1.44762 0.369488,-2.12804 0.332968,-2.76509 -0.09406,-4.91517 -1.078489,-5.47977 -0.224393,-0.12305 -0.492302,-0.1881 -0.82527,-0.1881 z m -14.455449,0.0284 v 0.007 c -0.33297,0 -0.615354,0.0578 -0.832508,0.1881 -0.977192,0.57184 -1.39699,2.72191 -1.056783,5.48701 0.08686,0.67317 0.210237,1.37525 0.376721,2.09909 1.418736,-0.35468 2.967441,-0.62261 4.603334,-0.79633 0.962715,-1.33912 1.976097,-2.54761 2.989482,-3.61167 -2.359739,-2.17877 -4.581888,-3.37343 -6.080249,-3.37343 z m 7.223845,4.5098 c -0.665939,0.69489 -1.339115,1.46924 -1.990576,2.31614 0.6587,-0.0362 1.331865,-0.0507 2.01228,-0.0507 0.673177,0 1.339115,0.0217 1.990576,0.0507 -0.665938,-0.8469 -1.339103,-1.62125 -2.01228,-2.31614 z m 0.0217,3.8871 c -1.100246,0 -2.193104,0.0506 -3.271635,0.14469 -0.600792,0.86138 -1.179996,1.78802 -1.744596,2.76521 -0.542885,0.94824 -1.049315,1.91772 -1.4981,2.88768 0.456023,0.96995 0.955211,1.93272 1.505334,2.88096 0.5646,0.96995 1.151039,1.88936 1.751832,2.75074 1.071292,0.0869 2.164157,0.13746 3.257165,0.13746 1.100246,0 2.193621,-0.0506 3.272152,-0.1447 0.600792,-0.86138 1.179479,-1.78801 1.744079,-2.7652 0.542884,-0.94824 1.042594,-1.91825 1.498619,-2.8882 -0.456025,-0.96995 -0.95573,-1.93221 -1.505854,-2.88044 -0.564599,-0.96996 -1.150521,-1.88936 -1.751314,-2.75074 -1.071292,-0.0869 -2.164674,-0.13746 -3.257682,-0.13746 z m -5.377966,0.3762 c -1.0351,0.15201 -2.034009,0.34767 -2.982247,0.57206 0.275061,0.941 0.608028,1.91101 0.998905,2.88096 0.296777,-0.57907 0.608059,-1.15828 0.941028,-1.73736 0.332969,-0.58631 0.687629,-1.15829 1.042314,-1.71566 z m 10.74198,0 c 0.354685,0.55013 0.709342,1.11488 1.042312,1.69396 0.340209,0.57907 0.651486,1.15777 0.948264,1.73684 0.376401,-0.96271 0.709382,-1.92498 0.977199,-2.85874 -0.948235,-0.23163 -1.939915,-0.42005 -2.967775,-0.57206 z m 4.530989,0.99891 c -0.405355,1.4115 -0.940681,2.8807 -1.606622,4.3863 0.673177,1.51283 1.215734,2.98977 1.628325,4.40851 0.70213,-0.22439 1.382538,-0.4634 2.005045,-0.73122 2.562415,-1.08577 4.220411,-2.52639 4.22765,-3.66283 0,-1.13643 -1.657999,-2.5693 -4.220414,-3.6623 -0.636984,-0.26783 -1.317376,-0.51407 -2.033984,-0.73846 z m -19.818945,0.007 c -0.702131,0.2244 -1.3825383,0.4634 -2.0050469,0.73123 -2.562416,1.08577 -4.219898,2.52587 -4.219898,3.6623 0,1.13644 1.657482,2.56982 4.219898,3.66283 0.6297476,0.26782 1.3101439,0.51406 2.0267509,0.73846 0.405354,-1.4115 0.941199,-2.88122 1.607137,-4.38682 -0.673176,-1.51283 -1.216248,-2.98926 -1.628841,-4.408 z m 9.916707,1.08573 a 3.3079772,3.3079772 0 0 1 3.308326,3.3078 3.3079772,3.3079772 0 0 1 -3.308325,3.30833 3.3079772,3.3079772 0 0 1 -3.307808,-3.30833 3.3079772,3.3079772 0 0 1 3.307807,-3.3078 z m 7.361825,5.24774 c -0.296778,0.57907 -0.60806,1.16552 -0.94103,1.74459 -0.332965,0.58632 -0.687628,1.1583 -1.042312,1.71566 1.035099,-0.15201 2.034007,-0.34766 2.982247,-0.57929 -0.275063,-0.941 -0.608028,-1.91101 -0.998905,-2.88096 z m -14.715898,0.0289 c -0.3764,0.96271 -0.709378,1.92549 -0.977201,2.85925 0.948238,0.23163 1.939916,0.42005 2.967777,0.57206 -0.354684,-0.55012 -0.702105,-1.11487 -1.042313,-1.69395 -0.340208,-0.57908 -0.651486,-1.15829 -0.948263,-1.73736 z m 16.119946,4.41575 c -1.41874,0.35468 -2.967444,0.62261 -4.603336,0.79633 -0.962716,1.33912 -1.976097,2.54761 -2.989482,3.61167 2.359739,2.17877 4.581888,3.37343 6.080248,3.37343 0.332971,0 0.615352,-0.0578 0.832507,-0.1881 0.977193,-0.57184 1.396992,-2.72191 1.056782,-5.487 -0.07962,-0.67318 -0.210235,-1.37525 -0.376719,-2.10633 z m -17.50229,0.0145 c -0.159247,0.73108 -0.289864,1.44762 -0.369487,2.12803 -0.332969,2.76509 0.09406,4.91517 1.078487,5.47977 0.217154,0.12305 0.492308,0.1881 0.818038,0.19534 1.5056,0 3.720511,-1.20189 6.080249,-3.39514 -1.020623,-1.06406 -2.033993,-2.27979 -3.011186,-3.6189 -1.628653,-0.17373 -3.177363,-0.44166 -4.596101,-0.7891 z m 6.745841,0.94826 c 0.665939,0.8469 1.339103,1.62125 2.01228,2.31614 0.665939,-0.69489 1.339115,-1.46924 1.990577,-2.31614 -0.6587,0.0362 -1.331865,0.0506 -2.012281,0.0506 -0.673177,0 -1.339114,-0.0217 -1.990576,-0.0506 z"
       style="opacity:1;fill:none;fill-opacity:1;fill-rule:nonzero;stroke:#08ebf7;stroke-width:0.38299999;stroke-linejoin:round;stroke-miterlimit:4;stroke-dasharray:none;stroke-dashoffset:0;stroke-opacity:1;paint-order:normal"
       inkscape:connector-curvature="0" />
  </g>
</svg>
